<?xml version="1.0" encoding="UTF-8"?>
<svg xmlns="http://www.w3.org/2000/svg" xmlns:xlink="http://www.w3.org/1999/xlink" version="1.2" >
<font id="Trenda Bold">
<font-face  font-family="Trenda" units-per-em="1000" ascent="961" descent="-260" font-style="normal" font-weight="700" font-stretch="normal" cap-height="703" x-height="460" underline-position="-75" underline-thickness="50" />
<missing-glyph  horiz-adv-x="610" d="" />
<glyph glyph-name="NULL" d="" />
<glyph glyph-name="CR" unicode="&#xd;" horiz-adv-x="250" d="" />
<glyph glyph-name="space" unicode="&#x20;" horiz-adv-x="232" d="" />
<glyph glyph-name="exclam" unicode="&#x21;" horiz-adv-x="279" d="M89 213 L189 213 L215 734 L64 734 L89 213 Z M141 -8 C186 -8 223 28 223 74 C223 118 186 156 141 156 C94 156 59 118 59 74 C59 28 94 -8 141 -8 L141 -8 Z " />
<glyph glyph-name="quotedbl" unicode="&#x22;" horiz-adv-x="381" d="M63 513 L150 513 L164 719 L49 719 L63 513 Z M232 513 L318 513 L331 719 L217 719 L232 513 Z " />
<glyph glyph-name="numbersign" unicode="&#x23;" horiz-adv-x="689" d="M639 425 L639 528 L567 528 L617 704 L505 704 L454 528 L315 528 L365 704 L257 704 L206 528 L76 528 L76 425 L177 425 L135 280 L36 280 L36 177 L106 177 L55 1 L164 1 L214 177 L354 177 L303 1 L416 1 L466 177 L599 177 L599 280 L496 280 L537 425 L639 425 Z M383 280 L244 280 L285 425 L425 425 L383 280 Z " />
<glyph glyph-name="dollar" unicode="&#x24;" horiz-adv-x="536" d="M491 230 C491 362 379 394 293 420 C237 436 191 454 191 493 C191 531 230 556 289 556 C344 556 396 536 438 509 L486 607 C453 632 402 655 344 665 L344 750 L212 750 L212 662 C118 641 58 576 58 488 C58 378 137 340 212 317 C288 293 362 276 362 221 C362 183 320 160 255 160 C195 160 140 181 86 216 L38 115 C83 82 145 58 208 50 L208 -34 L341 -34 L341 55 C435 78 491 142 491 230 L491 230 Z " />
<glyph glyph-name="percent" unicode="&#x25;" horiz-adv-x="881" d="M266 -19 L703 708 L604 758 L168 26 L266 -19 Z M212 400 C320 400 393 472 393 579 C393 684 321 754 212 754 C106 754 32 684 32 579 C32 472 106 400 212 400 L212 400 Z M212 492 C164 492 129 526 129 579 C129 628 164 662 212 662 C262 662 297 628 297 579 C297 526 262 492 212 492 L212 492 Z M668 -13 C776 -13 850 57 850 164 C850 270 777 339 668 339 C559 339 488 270 488 164 C488 57 559 -13 668 -13 L668 -13 Z M668 77 C619 77 584 112 584 164 C584 213 619 247 668 247 C719 247 752 213 752 164 C752 112 719 77 668 77 L668 77 Z " />
<glyph glyph-name="ampersand" unicode="&#x26;" horiz-adv-x="694" d="M674 299 L582 357 C576 340 547 282 494 223 L362 347 C455 394 508 465 508 542 C508 644 427 712 309 712 C187 712 100 639 100 529 C100 475 122 425 165 373 C88 333 41 271 41 192 C41 72 140 -9 279 -9 C358 -9 430 17 486 67 L581 -22 C620 21 660 64 661 66 L573 149 C639 218 662 272 674 299 L674 299 Z M312 610 C358 610 391 580 391 537 C391 494 351 452 283 422 C241 466 226 493 226 528 C226 576 263 610 312 610 L312 610 Z M288 101 C220 101 174 139 174 197 C174 240 198 273 241 297 L405 144 C370 116 331 101 288 101 L288 101 Z " />
<glyph glyph-name="quotesingle" unicode="&#x27;" horiz-adv-x="214" d="M63 513 L150 513 L164 719 L49 719 L63 513 Z " />
<glyph glyph-name="parenleft" unicode="&#x28;" horiz-adv-x="360" d="M288 -123 L353 -31 C260 47 158 145 158 349 C158 552 255 653 348 729 L288 820 C149 730 39 579 39 349 C39 119 149 -32 288 -123 L288 -123 Z " />
<glyph glyph-name="parenright" unicode="&#x29;" horiz-adv-x="359" d="M72 -123 C209 -32 320 119 320 349 C320 579 209 730 72 820 L13 729 C104 653 201 552 201 349 C201 145 100 47 6 -31 L72 -123 Z " />
<glyph glyph-name="asterisk" unicode="&#x2a;" horiz-adv-x="425" d="M378 606 L337 677 L243 609 L253 723 L173 723 L183 609 L87 677 L47 606 L154 557 L47 509 L87 438 L184 506 L173 389 L253 389 L242 506 L337 438 L378 509 L272 558 L378 606 Z " />
<glyph glyph-name="plus" unicode="&#x2b;" horiz-adv-x="549" d="M503 345 L330 345 L330 525 L222 525 L222 345 L46 345 L46 241 L222 241 L222 61 L330 61 L330 241 L503 241 L503 345 Z " />
<glyph glyph-name="comma" unicode="&#x2c;" horiz-adv-x="261" d="M100 -127 C168 -92 214 -19 213 57 C212 109 180 143 131 143 C80 143 46 110 47 63 C48 22 74 -5 110 -5 C115 -5 119 -5 122 -4 C122 -27 97 -60 63 -85 L100 -127 Z " />
<glyph glyph-name="hyphen" unicode="&#x2d;" horiz-adv-x="367" d="M54 195 L313 195 L313 303 L54 303 L54 195 Z " />
<glyph glyph-name="period" unicode="&#x2e;" horiz-adv-x="259" d="M130 -9 C176 -9 212 28 212 73 C212 118 176 155 130 155 C83 155 48 118 48 73 C48 28 83 -9 130 -9 L130 -9 Z " />
<glyph glyph-name="slash" unicode="&#x2f;" horiz-adv-x="406" d="M29 -154 L138 -154 L376 795 L268 795 L29 -154 Z " />
<glyph glyph-name="zero" unicode="0" horiz-adv-x="689" d="M347 -9 C522 -9 639 119 639 351 C638 584 522 712 347 712 C170 712 50 592 50 352 C50 119 170 -9 347 -9 L347 -9 Z M348 111 C252 111 186 187 186 351 C186 525 253 593 347 593 C441 593 502 516 502 352 C502 186 440 111 348 111 L348 111 Z " />
<glyph glyph-name="one" unicode="1" horiz-adv-x="418" d="M250 703 L7 607 L48 498 L199 553 L199 0 L332 0 L332 703 L250 703 Z " />
<glyph glyph-name="two" unicode="2" horiz-adv-x="567" d="M47 0 L520 0 L520 118 L282 118 C311 140 339 168 370 201 C460 294 503 381 503 477 C503 623 400 712 236 712 C143 712 67 684 30 661 L74 554 C103 573 152 591 219 591 C309 591 365 538 367 460 C368 403 346 344 274 266 C191 175 91 105 47 76 L47 0 Z " />
<glyph glyph-name="three" unicode="3" horiz-adv-x="553" d="M303 434 L479 617 L479 703 L34 703 L34 587 L309 587 L110 386 L138 316 C171 329 205 336 239 336 C326 336 375 295 375 222 C375 149 322 103 228 103 C145 103 96 136 69 154 L19 53 C59 24 133 -9 235 -9 C407 -9 510 82 510 223 C510 354 428 429 303 434 L303 434 Z " />
<glyph glyph-name="four" unicode="4" horiz-adv-x="595" d="M566 265 L495 265 L495 510 L364 510 L364 265 L168 265 L310 670 L196 710 L22 233 L22 148 L364 148 L364 0 L495 0 L495 148 L566 148 L566 265 Z " />
<glyph glyph-name="five" unicode="5" horiz-adv-x="561" d="M293 450 C267 450 240 447 213 442 L213 588 L484 588 L484 703 L80 703 L80 353 L138 317 C169 332 209 342 254 342 C330 342 398 306 399 227 C399 148 345 102 252 102 C169 102 102 141 83 151 L37 46 C53 37 140 -9 261 -9 C434 -9 528 90 528 229 C528 374 430 450 293 450 L293 450 Z " />
<glyph glyph-name="six" unicode="6" horiz-adv-x="594" d="M334 455 C280 455 234 436 200 403 C246 493 341 559 457 615 L398 713 C191 616 44 472 44 253 C44 98 145 -9 305 -9 C452 -9 557 87 557 228 C557 361 467 455 334 455 L334 455 Z M305 107 C228 107 176 160 176 232 C176 297 229 348 304 348 C382 348 432 298 432 228 C432 156 382 107 305 107 L305 107 Z " />
<glyph glyph-name="seven" unicode="7" horiz-adv-x="525" d="M83 0 L227 0 L513 641 L513 703 L17 703 L17 581 L351 581 L83 0 Z " />
<glyph glyph-name="eight" unicode="8" horiz-adv-x="611" d="M305 -9 C479 -9 565 87 565 205 C565 289 516 352 450 377 C504 404 538 450 538 523 C538 639 439 712 305 712 C172 712 72 639 72 523 C72 450 107 404 161 377 C95 351 46 286 46 202 C46 83 129 -9 305 -9 L305 -9 Z M305 422 C244 422 201 459 201 517 C201 570 244 608 305 608 C367 608 409 570 409 517 C409 459 367 422 305 422 L305 422 Z M305 102 C231 102 181 146 181 207 C181 274 233 316 305 316 C378 316 430 274 430 207 C430 146 380 102 305 102 L305 102 Z " />
<glyph glyph-name="nine" unicode="9" horiz-adv-x="590" d="M286 712 C138 712 33 615 33 473 C33 340 125 248 259 248 C313 248 359 267 392 300 C346 211 252 145 135 86 L193 -9 C396 80 547 226 547 449 C547 602 451 712 286 712 L286 712 Z M288 355 C210 355 159 406 159 475 C159 548 209 597 287 597 C363 597 416 545 416 475 C416 406 362 355 288 355 L288 355 Z " />
<glyph glyph-name="colon" unicode="&#x3a;" horiz-adv-x="279" d="M140 311 C186 311 221 348 221 393 C221 438 186 475 140 475 C93 475 57 438 57 393 C57 348 93 311 140 311 L140 311 Z M140 -17 C186 -17 221 20 221 65 C221 110 186 147 140 147 C93 147 57 110 57 65 C57 20 93 -17 140 -17 L140 -17 Z " />
<glyph glyph-name="semicolon" unicode="&#x3b;" horiz-adv-x="314" d="M157 297 C203 297 238 334 238 378 C238 424 203 461 157 461 C110 461 74 424 74 378 C74 334 110 297 157 297 L157 297 Z M127 -134 C195 -99 240 -26 240 50 C239 101 207 135 158 135 C107 135 73 103 74 56 C75 15 100 -12 136 -12 C141 -12 146 -12 149 -11 C149 -34 123 -68 90 -92 L127 -134 Z " />
<glyph glyph-name="less" unicode="&#x3c;" horiz-adv-x="452" d="M390 559 L40 347 L40 233 L390 22 L390 147 L161 290 L390 433 L390 559 Z " />
<glyph glyph-name="equal" unicode="&#x3d;" horiz-adv-x="626" d="M64 344 L562 344 L562 448 L64 448 L64 344 Z M64 128 L562 128 L562 233 L64 233 L64 128 Z " />
<glyph glyph-name="greater" unicode="&#x3e;" horiz-adv-x="452" d="M63 558 L63 432 L292 289 L63 146 L63 22 L412 232 L412 346 L63 558 Z " />
<glyph glyph-name="question" unicode="&#x3f;" horiz-adv-x="455" d="M121 204 L239 204 L239 226 C239 367 419 379 419 547 C419 665 337 735 211 735 C140 735 83 719 20 685 L67 587 C95 604 136 621 188 621 C254 621 286 588 286 535 C286 434 121 409 121 242 L121 204 Z M181 -9 C224 -9 256 25 256 68 C256 110 224 143 181 143 C137 143 104 109 104 68 C104 26 137 -9 181 -9 L181 -9 Z " />
<glyph glyph-name="at" unicode="&#x40;" horiz-adv-x="959" d="M483 672 C219 672 36 499 36 250 C36 7 208 -156 463 -156 C540 -156 615 -140 676 -112 L639 -8 C588 -31 513 -46 452 -45 C278 -40 160 78 157 251 C155 435 280 558 473 561 C665 564 792 454 792 286 C792 211 766 165 719 165 C686 165 670 183 670 232 L670 449 L572 449 L569 422 C538 447 498 461 450 461 C336 461 251 371 251 253 C251 137 334 47 446 47 C512 47 563 71 595 113 C617 76 665 53 725 54 C838 55 911 151 911 293 C911 517 738 672 483 672 L483 672 Z M471 154 C413 154 373 195 373 253 C373 311 413 353 471 353 C529 353 570 313 570 253 C569 194 529 154 471 154 L471 154 Z " />
<glyph glyph-name="A" unicode="A" horiz-adv-x="701" d="M556 0 L702 0 L396 703 L305 703 L-3 0 L143 0 L199 136 L500 136 L556 0 Z M350 507 L456 253 L243 253 L350 507 Z " />
<glyph glyph-name="B" unicode="B" horiz-adv-x="679" d="M505 368 C566 392 608 446 608 521 C608 625 533 703 349 703 L86 703 L86 0 L366 0 C550 0 633 76 633 201 C633 279 587 345 505 368 L505 368 Z M474 497 C474 442 436 410 357 410 L221 410 L221 588 L347 588 C437 588 474 553 474 497 L474 497 Z M365 115 L221 115 L221 300 L365 300 C457 300 497 263 497 210 C497 151 453 115 365 115 L365 115 Z " />
<glyph glyph-name="C" unicode="C" horiz-adv-x="672" d="M417 -9 C543 -9 617 34 649 58 L589 167 C571 155 516 120 425 120 C279 120 185 212 185 352 C185 492 280 583 425 583 C516 583 572 546 588 534 L649 644 C617 668 540 712 417 712 C192 712 43 555 43 351 C43 148 191 -9 417 -9 L417 -9 Z " />
<glyph glyph-name="D" unicode="D" horiz-adv-x="770" d="M356 703 L85 703 L85 0 L356 0 C578 0 725 141 725 352 C725 563 578 703 356 703 L356 703 Z M350 122 L223 122 L223 581 L350 581 C497 581 585 489 585 350 C585 213 497 122 350 122 L350 122 Z " />
<glyph glyph-name="E" unicode="E" horiz-adv-x="622" d="M223 121 L223 294 L526 294 L526 416 L223 416 L223 581 L567 581 L567 703 L85 703 L85 0 L570 0 L570 121 L223 121 Z " />
<glyph glyph-name="F" unicode="F" horiz-adv-x="594" d="M562 581 L562 703 L85 703 L85 0 L223 0 L223 240 L518 240 L518 362 L223 362 L223 581 L562 581 Z " />
<glyph glyph-name="G" unicode="G" horiz-adv-x="737" d="M556 350 L556 142 C523 126 479 115 426 115 C293 115 185 211 185 351 C185 491 288 583 427 583 C524 583 583 547 601 535 L662 645 C636 662 562 712 421 712 C199 712 42 554 42 351 C42 148 199 -9 418 -9 C565 -9 648 44 686 73 L686 350 L556 350 Z " />
<glyph glyph-name="H" unicode="H" horiz-adv-x="806" d="M583 703 L583 413 L223 413 L223 703 L85 703 L85 0 L223 0 L223 291 L583 291 L583 0 L721 0 L721 703 L583 703 Z " />
<glyph glyph-name="I" unicode="I" horiz-adv-x="308" d="M85 0 L223 0 L223 703 L85 703 L85 0 Z " />
<glyph glyph-name="J" unicode="J" horiz-adv-x="488" d="M164 -9 C318 -9 410 88 410 244 L410 703 L271 703 L271 248 C271 171 228 126 153 126 C113 126 74 135 58 146 L6 30 C15 24 64 -9 164 -9 L164 -9 Z " />
<glyph glyph-name="K" unicode="K" horiz-adv-x="664" d="M689 0 L344 357 L670 703 L506 703 L223 399 L223 703 L85 703 L85 0 L223 0 L223 294 L509 0 L689 0 Z " />
<glyph glyph-name="L" unicode="L" horiz-adv-x="572" d="M223 121 L223 703 L85 703 L85 0 L563 0 L563 121 L223 121 Z " />
<glyph glyph-name="M" unicode="M" horiz-adv-x="906" d="M830 0 L809 703 L723 703 L451 241 L185 703 L98 703 L76 0 L211 0 L218 422 L408 82 L494 82 L688 422 L694 0 L830 0 Z " />
<glyph glyph-name="N" unicode="N" horiz-adv-x="803" d="M582 703 L582 241 L164 710 L86 710 L86 0 L221 0 L221 462 L640 -8 L718 -8 L718 703 L582 703 Z " />
<glyph glyph-name="O" unicode="O" horiz-adv-x="825" d="M414 -9 C627 -9 782 144 782 350 C782 558 627 712 414 712 C199 712 42 554 42 350 C42 147 199 -9 414 -9 L414 -9 Z M414 118 C281 118 183 218 183 350 C183 483 281 584 414 584 C544 584 641 484 641 350 C641 217 544 118 414 118 L414 118 Z " />
<glyph glyph-name="P" unicode="P" horiz-adv-x="647" d="M333 703 L85 703 L85 0 L223 0 L223 202 L327 202 C501 203 620 297 620 449 C620 604 503 703 333 703 L333 703 Z M326 325 L223 325 L223 581 L326 581 C422 581 478 522 478 451 C478 382 424 325 326 325 L326 325 Z " />
<glyph glyph-name="Q" unicode="Q" horiz-adv-x="824" d="M782 350 C782 558 627 712 414 712 C199 712 42 554 42 350 C42 147 199 -9 414 -9 C446 -9 476 -6 505 1 L682 -159 L767 -60 L636 59 C727 122 782 227 782 350 L782 350 Z M183 350 C183 482 281 584 414 584 C544 584 641 483 641 350 C641 218 544 118 414 118 C281 118 183 218 183 350 L183 350 Z " />
<glyph glyph-name="R" unicode="R" horiz-adv-x="669" d="M644 0 L483 232 C570 273 621 349 621 449 C621 606 507 703 336 703 L85 703 L85 0 L223 0 L223 201 L327 201 L344 201 L481 0 L644 0 Z M223 582 L325 582 C416 582 478 533 478 449 C478 372 417 322 324 322 L223 322 L223 582 Z " />
<glyph glyph-name="S" unicode="S" horiz-adv-x="592" d="M299 -9 C449 -9 548 73 548 204 C548 339 456 385 337 420 C240 449 194 465 194 516 C194 568 242 592 306 592 C377 592 431 571 479 536 L542 640 C487 683 410 712 307 712 C156 712 54 631 54 507 C54 384 147 338 266 305 C371 276 411 251 411 195 C411 138 364 111 301 111 C227 111 157 135 94 186 L25 76 C95 22 182 -9 299 -9 L299 -9 Z " />
<glyph glyph-name="T" unicode="T" horiz-adv-x="626" d="M616 703 L11 703 L11 581 L245 581 L245 0 L383 0 L383 581 L616 581 L616 703 Z " />
<glyph glyph-name="U" unicode="U" horiz-adv-x="770" d="M385 -9 C571 -9 694 99 694 302 L694 703 L557 703 L557 291 C557 196 501 116 386 116 C270 116 214 196 214 291 L214 703 L76 703 L76 302 C76 99 199 -9 385 -9 L385 -9 Z " />
<glyph glyph-name="V" unicode="V" horiz-adv-x="683" d="M528 703 L390 331 L346 189 L301 331 L159 703 L4 703 L297 0 L386 0 L678 703 L528 703 Z " />
<glyph glyph-name="W" unicode="W" horiz-adv-x="960" d="M821 703 L755 451 L688 198 L611 442 L525 703 L433 703 L348 442 L275 195 L215 450 L148 703 L2 703 L218 0 L322 0 L477 493 L637 0 L741 0 L958 703 L821 703 Z " />
<glyph glyph-name="X" unicode="X" horiz-adv-x="688" d="M685 0 L434 359 L666 703 L511 703 L349 455 L189 703 L25 703 L261 355 L16 0 L172 0 L344 259 L521 0 L685 0 Z " />
<glyph glyph-name="Y" unicode="Y" horiz-adv-x="675" d="M667 703 L511 703 L343 410 L175 703 L10 703 L268 274 L268 0 L406 0 L406 274 L667 703 Z " />
<glyph glyph-name="Z" unicode="Z" horiz-adv-x="643" d="M210 122 L597 616 L597 703 L37 703 L37 581 L413 581 L32 86 L32 0 L605 0 L605 122 L210 122 Z " />
<glyph glyph-name="bracketleft" unicode="&#x5b;" horiz-adv-x="372" d="M346 684 L346 788 L75 788 L75 -101 L346 -101 L346 4 L186 4 L186 684 L346 684 Z " />
<glyph glyph-name="backslash" unicode="&#x5c;" horiz-adv-x="405" d="M267 -164 L376 -164 L137 760 L29 760 L267 -164 Z " />
<glyph glyph-name="bracketright" unicode="&#x5d;" horiz-adv-x="372" d="M26 788 L26 684 L186 684 L186 4 L26 4 L26 -101 L297 -101 L297 788 L26 788 Z " />
<glyph glyph-name="asciicircum" unicode="&#x5e;" horiz-adv-x="522" d="M481 384 L296 687 L222 687 L41 384 L168 384 L263 563 L357 384 L481 384 Z " />
<glyph glyph-name="underscore" unicode="&#x5f;" horiz-adv-x="620" d="M53 -33 L567 -33 L567 69 L53 69 L53 -33 Z " />
<glyph glyph-name="grave" unicode="&#x60;" horiz-adv-x="275" d="M222 518 L265 592 L71 723 L10 618 L222 518 Z " />
<glyph glyph-name="a" unicode="a" horiz-adv-x="593" d="M410 460 L404 416 C370 447 322 469 261 469 C134 469 37 366 37 230 C37 94 131 -9 258 -9 C326 -9 376 21 410 63 L415 0 L531 0 L531 460 L410 460 Z M287 110 C220 110 169 162 169 230 C169 299 220 350 287 350 C359 350 405 300 405 230 C406 161 359 110 287 110 L287 110 Z " />
<glyph glyph-name="b" unicode="b" horiz-adv-x="592" d="M334 469 C273 469 226 444 193 409 L193 714 L62 714 L62 0 L168 0 L173 61 C209 20 261 -9 330 -9 C457 -9 555 94 555 230 C555 366 461 469 334 469 L334 469 Z M305 110 C233 110 187 160 187 230 C187 298 233 350 305 350 C372 350 423 298 423 230 C423 161 372 110 305 110 L305 110 Z " />
<glyph glyph-name="c" unicode="c" horiz-adv-x="485" d="M289 -9 C380 -9 429 25 457 43 L405 141 C384 127 353 110 302 110 C223 110 170 160 170 230 C170 300 224 350 304 350 C352 350 384 333 405 319 L458 418 C431 437 380 469 289 469 C145 469 36 364 36 230 C36 95 142 -9 289 -9 L289 -9 Z " />
<glyph glyph-name="d" unicode="d" horiz-adv-x="592" d="M400 714 L400 408 C367 444 319 469 258 469 C131 469 37 366 37 230 C37 94 135 -9 262 -9 C331 -9 383 20 419 61 L424 0 L530 0 L530 714 L400 714 Z M287 110 C220 110 169 161 169 230 C169 298 220 350 287 350 C359 350 405 298 405 230 C405 160 359 110 287 110 L287 110 Z " />
<glyph glyph-name="e" unicode="e" horiz-adv-x="541" d="M506 229 C506 367 416 469 277 469 C136 469 37 364 37 230 C37 95 144 -9 290 -9 C395 -9 452 29 480 54 L426 148 C406 132 371 101 304 101 C232 101 181 141 166 194 L504 194 C504 194 506 212 506 229 L506 229 Z M282 365 C334 365 375 330 381 278 L167 278 C182 335 225 365 282 365 L282 365 Z " />
<glyph glyph-name="f" unicode="f" horiz-adv-x="398" d="M109 0 L240 0 L240 350 L378 350 L378 460 L240 460 L240 507 C240 576 284 603 329 603 C360 603 376 593 385 588 L435 686 C413 701 375 722 314 722 C184 722 109 642 109 514 L109 460 L22 460 L22 350 L109 350 L109 0 Z " />
<glyph glyph-name="g" unicode="g" horiz-adv-x="590" d="M422 458 L418 401 C382 440 330 469 261 469 C134 469 37 366 37 230 C37 94 131 -9 258 -9 C317 -9 363 15 397 49 L397 13 C397 -47 345 -92 267 -92 C207 -92 152 -72 113 -50 L58 -143 C106 -179 172 -204 276 -204 C438 -204 528 -104 528 30 L528 458 L422 458 Z M287 110 C220 110 169 162 169 230 C169 299 220 350 287 350 C359 350 405 300 405 230 C405 161 359 110 287 110 L287 110 Z " />
<glyph glyph-name="h" unicode="h" horiz-adv-x="588" d="M325 469 C265 469 221 448 193 419 L193 714 L62 714 L62 0 L193 0 L193 240 C193 301 233 351 299 351 C359 351 401 305 401 236 L401 0 L532 0 L532 254 C532 383 447 469 325 469 L325 469 Z " />
<glyph glyph-name="i" unicode="i" horiz-adv-x="256" d="M126 539 C175 539 213 573 213 622 C213 671 175 705 126 705 C78 704 41 671 41 622 C41 573 78 539 126 539 L126 539 Z M63 0 L194 0 L194 460 L63 460 L63 0 Z " />
<glyph glyph-name="j" unicode="j" horiz-adv-x="264" d="M133 539 C182 539 220 573 220 622 C220 671 182 705 133 705 C85 704 48 671 48 622 C48 573 85 539 133 539 L133 539 Z M15 -204 C129 -204 201 -124 201 0 L201 460 L70 460 L70 -2 C70 -61 37 -85 -1 -85 C-22 -85 -33 -82 -42 -77 L-76 -187 C-60 -195 -34 -204 15 -204 L15 -204 Z " />
<glyph glyph-name="k" unicode="k" horiz-adv-x="532" d="M541 0 L316 242 L525 460 L360 460 L193 276 L193 714 L62 714 L62 0 L193 0 L193 190 L370 0 L541 0 Z " />
<glyph glyph-name="l" unicode="l" horiz-adv-x="257" d="M63 0 L194 0 L194 714 L63 714 L63 0 Z " />
<glyph glyph-name="m" unicode="m" horiz-adv-x="893" d="M629 469 C560 469 507 433 479 388 C445 437 388 469 315 469 C244 469 185 429 161 379 L156 460 L62 460 L62 0 L193 0 L193 240 C193 301 230 351 293 351 C347 351 384 305 384 236 L384 0 L515 0 L515 238 C515 304 554 351 614 351 C670 351 706 305 706 236 L706 0 L837 0 L837 255 C837 383 750 469 629 469 L629 469 Z " />
<glyph glyph-name="n" unicode="n" horiz-adv-x="588" d="M330 469 C246 469 188 430 161 382 L156 460 L62 460 L62 0 L193 0 L193 240 C193 301 234 351 300 351 C360 351 401 306 401 236 L401 0 L532 0 L532 254 C532 385 453 469 330 469 L330 469 Z " />
<glyph glyph-name="o" unicode="o" horiz-adv-x="570" d="M285 -9 C423 -9 534 94 534 230 C534 366 423 469 285 469 C147 469 36 366 36 230 C36 94 147 -9 285 -9 L285 -9 Z M285 110 C219 110 168 163 168 230 C168 296 219 350 285 350 C352 350 402 296 402 230 C402 163 352 110 285 110 L285 110 Z " />
<glyph glyph-name="p" unicode="p" horiz-adv-x="592" d="M330 469 C263 469 213 442 177 404 L172 460 L62 460 L62 -195 L193 -195 L193 51 C226 16 273 -9 334 -9 C461 -9 555 94 555 230 C555 366 457 469 330 469 L330 469 Z M305 110 C233 110 187 162 187 230 C187 300 233 350 305 350 C372 350 423 299 423 230 C423 162 372 110 305 110 L305 110 Z " />
<glyph glyph-name="q" unicode="q" horiz-adv-x="592" d="M420 460 L416 403 C380 442 329 469 262 469 C135 469 37 366 37 230 C37 94 131 -9 258 -9 C319 -9 367 16 400 51 L400 -195 L530 -195 L530 460 L420 460 Z M287 110 C220 110 169 162 169 230 C169 299 220 350 287 350 C359 350 405 300 405 230 C405 162 359 110 287 110 L287 110 Z " />
<glyph glyph-name="r" unicode="r" horiz-adv-x="382" d="M328 469 C249 469 192 426 176 370 L171 460 L62 460 L62 0 L193 0 L193 231 C193 296 238 344 311 344 C332 344 344 340 357 335 L368 465 C356 468 342 469 328 469 L328 469 Z " />
<glyph glyph-name="s" unicode="s" horiz-adv-x="472" d="M227 -9 C361 -9 432 52 432 140 C432 237 353 265 278 283 C209 299 185 307 185 330 C185 353 206 364 239 364 C290 364 339 346 380 320 L432 417 C391 445 321 469 242 469 C126 469 50 412 50 324 C50 233 137 200 215 181 C276 167 298 156 298 132 C298 108 278 96 240 96 C177 96 119 120 84 146 L30 49 C78 16 147 -9 227 -9 L227 -9 Z " />
<glyph glyph-name="t" unicode="t" horiz-adv-x="447" d="M291 -9 C378 -9 424 24 442 37 L397 134 C385 127 360 109 321 109 C274 109 240 129 240 183 L240 350 L411 350 L411 460 L240 460 L240 618 L113 618 L113 460 L16 460 L16 350 L109 350 L109 170 C109 55 178 -9 291 -9 L291 -9 Z " />
<glyph glyph-name="u" unicode="u" horiz-adv-x="580" d="M387 460 L387 228 C387 167 349 117 284 117 C227 117 187 163 187 232 L187 460 L56 460 L56 206 C56 77 144 -9 268 -9 C332 -9 382 20 409 60 L413 0 L518 0 L518 460 L387 460 Z " />
<glyph glyph-name="v" unicode="v" horiz-adv-x="537" d="M392 460 L273 168 L150 460 L8 460 L218 -1 L317 -1 L530 460 L392 460 Z " />
<glyph glyph-name="w" unicode="w" horiz-adv-x="813" d="M663 460 L573 175 L455 469 L365 469 L253 182 L154 460 L10 460 L191 0 L285 0 L408 300 L532 0 L622 0 L803 460 L663 460 Z " />
<glyph glyph-name="x" unicode="x" horiz-adv-x="527" d="M510 0 L342 234 L505 460 L356 460 L263 319 L174 460 L22 460 L179 231 L14 0 L164 0 L260 146 L356 0 L510 0 Z " />
<glyph glyph-name="y" unicode="y" horiz-adv-x="533" d="M526 460 L391 460 L275 150 L157 460 L10 460 L206 1 L129 -195 L258 -195 L346 19 L526 460 Z " />
<glyph glyph-name="z" unicode="z" horiz-adv-x="492" d="M204 110 L448 363 L448 460 L46 460 L46 350 L281 350 L37 97 L37 0 L453 0 L453 110 L204 110 Z " />
<glyph glyph-name="braceleft" unicode="&#x7b;" horiz-adv-x="356" d="M321 -124 L321 -24 C259 -24 228 1 228 67 L228 229 C228 293 217 322 173 341 C217 364 228 391 228 454 L228 616 C228 680 259 706 321 706 L321 808 C197 808 111 743 111 625 L111 458 C111 415 97 391 68 391 L25 391 L25 293 L68 293 C97 293 111 270 111 226 L111 56 C111 -60 197 -124 321 -124 L321 -124 Z " />
<glyph glyph-name="bar" unicode="&#x7c;" horiz-adv-x="263" d="M75 -104 L188 -104 L188 714 L75 714 L75 -104 Z " />
<glyph glyph-name="braceright" unicode="&#x7d;" horiz-adv-x="356" d="M35 -124 C159 -124 245 -60 245 56 L245 226 C245 270 260 293 288 293 L331 293 L331 391 L288 391 C260 391 245 414 245 457 L245 625 C245 743 159 808 35 808 L35 706 C98 706 128 680 128 616 L128 454 C128 391 139 364 183 341 C139 322 128 293 128 229 L128 67 C128 1 98 -24 35 -24 L35 -124 Z " />
<glyph glyph-name="asciitilde" unicode="&#x7e;" horiz-adv-x="599" d="M390 197 C486 197 536 285 538 286 L463 347 C461 344 435 305 392 305 C328 305 287 347 209 347 C111 347 65 270 62 268 L138 206 C140 207 162 239 208 239 C274 239 304 197 390 197 L390 197 Z " />
<glyph glyph-name="uni00A0" unicode="&#xa0;" horiz-adv-x="232" d="" />
<glyph glyph-name="exclamdown" unicode="&#xa1;" horiz-adv-x="280" d="M142 383 C186 383 224 421 224 466 C224 511 186 547 142 547 C95 547 59 511 59 466 C59 421 95 383 142 383 L142 383 Z M64 -195 L216 -195 L190 326 L89 326 L64 -195 Z " />
<glyph glyph-name="cent" unicode="&#xa2;" horiz-adv-x="556" d="M465 236 C438 218 400 199 341 199 C245 199 174 264 174 354 C174 444 245 510 345 510 C400 510 439 491 467 471 L518 570 C490 589 448 616 380 626 L380 749 L258 749 L258 621 C129 592 40 486 40 354 C40 221 130 114 258 86 L258 -33 L380 -33 L380 83 C448 93 490 120 517 137 L465 236 Z " />
<glyph glyph-name="sterling" unicode="&#xa3;" horiz-adv-x="596" d="M270 253 L455 253 L455 355 L270 355 L269 467 C268 555 328 593 397 593 C440 594 475 580 501 561 L557 656 C550 664 495 712 384 712 C237 712 138 622 139 481 L139 355 L48 355 L48 253 L139 253 L139 113 L48 113 L48 0 L553 0 L553 113 L271 113 L270 253 Z " />
<glyph glyph-name="currency" unicode="&#xa4;" horiz-adv-x="615" d="M526 355 C526 399 516 438 498 470 L559 532 L488 604 L427 543 C393 562 353 572 308 572 C263 572 223 562 189 543 L130 602 L57 532 L118 471 C99 439 89 399 89 355 C89 310 99 270 118 237 L57 176 L130 106 L191 165 C224 146 263 136 308 136 C353 136 392 146 425 165 L484 108 L557 180 L497 238 C516 271 526 310 526 355 L526 355 Z M308 242 C241 242 196 287 196 355 C196 422 241 466 308 466 C374 466 418 422 418 355 C418 287 374 242 308 242 L308 242 Z " />
<glyph glyph-name="yen" unicode="&#xa5;" horiz-adv-x="708" d="M682 703 L537 703 L361 402 L182 703 L29 703 L231 370 L106 370 L106 275 L288 275 L288 196 L105 196 L105 101 L288 101 L288 0 L421 0 L421 101 L594 101 L594 196 L421 196 L421 275 L596 275 L596 370 L479 370 L682 703 Z " />
<glyph glyph-name="brokenbar" unicode="&#xa6;" horiz-adv-x="266" d="M77 371 L189 371 L189 714 L77 714 L77 371 Z M77 -103 L189 -103 L189 245 L77 245 L77 -103 Z " />
<glyph glyph-name="section" unicode="&#xa7;" horiz-adv-x="539" d="M440 227 C465 253 485 290 485 337 C485 456 367 493 292 515 C235 533 190 548 190 588 C190 625 224 654 288 654 C345 654 393 633 434 606 L479 698 C436 730 365 759 280 759 C154 759 65 687 65 577 C65 530 82 497 107 473 C83 446 64 407 64 358 C64 252 152 217 220 198 C286 179 362 165 362 111 C362 70 318 48 253 48 C192 48 138 70 82 105 L40 11 C99 -29 175 -59 262 -59 C387 -59 484 4 484 117 C484 166 466 201 440 227 L440 227 Z M189 370 C189 389 200 406 220 417 L221 417 C287 398 362 384 362 332 C362 311 348 296 329 286 L291 297 C226 315 189 333 189 370 L189 370 Z " />
<glyph glyph-name="dieresis" unicode="&#xa8;" horiz-adv-x="411" d="M95 551 C137 551 172 583 171 626 C170 671 137 702 95 702 C53 702 18 671 19 626 C19 583 53 551 95 551 L95 551 Z M316 549 C359 549 394 580 393 624 C392 668 359 700 316 700 C274 700 239 668 240 624 C241 580 274 549 316 549 L316 549 Z " />
<glyph glyph-name="copyright" unicode="&#xa9;" horiz-adv-x="812" d="M407 -9 C613 -9 768 146 768 350 C768 557 613 712 407 712 C199 712 43 554 43 350 C43 149 199 -9 407 -9 L407 -9 Z M407 84 C257 84 144 202 144 350 C144 501 257 618 407 618 C556 618 668 503 668 350 C668 201 556 84 407 84 L407 84 Z M422 172 C462 172 505 183 533 200 L510 277 C485 261 452 253 423 253 C363 253 322 291 322 349 C322 409 362 447 422 447 C452 447 482 438 507 424 L531 497 C503 514 463 528 422 528 C311 528 236 457 236 349 C236 243 311 172 422 172 L422 172 Z " />
<glyph glyph-name="ordfeminine" unicode="&#xaa;" horiz-adv-x="440" d="M189 520 C237 520 268 543 288 570 L290 526 L363 526 L363 822 L287 822 L284 789 C264 811 233 828 192 828 C109 828 48 761 48 672 C48 585 108 520 189 520 L189 520 Z M209 594 C162 594 133 630 133 673 C133 716 161 752 209 752 C256 752 285 717 285 673 C285 630 257 594 209 594 L209 594 Z " />
<glyph glyph-name="guillemotleft" unicode="&#xab;" horiz-adv-x="503" d="M148 69 L268 69 L151 246 L268 423 L148 423 L35 246 L148 69 Z M338 69 L458 69 L339 246 L458 423 L338 423 L225 246 L338 69 Z " />
<glyph glyph-name="logicalnot" unicode="&#xac;" horiz-adv-x="563" d="M67 362 L67 261 L392 261 L392 140 L496 140 L496 362 L67 362 Z " />
<glyph glyph-name="registered" unicode="&#xae;" horiz-adv-x="481" d="M241 817 C125 817 32 724 32 609 C32 493 125 400 241 400 C357 400 449 493 449 609 C449 724 357 817 241 817 L241 817 Z M241 458 C159 458 93 526 93 609 C93 691 159 758 241 758 C323 758 389 691 389 609 C389 526 323 458 241 458 L241 458 Z M332 635 C332 679 299 715 240 715 L151 715 L151 501 L211 501 L211 558 L231 558 L269 501 L338 501 L291 567 C316 580 332 604 332 635 L332 635 Z M211 663 L234 663 C254 663 268 652 268 634 C268 617 254 607 233 607 L211 607 L211 663 Z " />
<glyph glyph-name="macron" unicode="&#xaf;" horiz-adv-x="329" d="M10 554 L319 554 L319 655 L10 655 L10 554 Z " />
<glyph glyph-name="degree" unicode="&#xb0;" horiz-adv-x="446" d="M223 382 C335 382 409 456 409 567 C409 676 335 748 223 748 C112 748 37 676 37 567 C37 456 112 382 223 382 L223 382 Z M223 472 C168 472 132 509 132 567 C132 621 168 657 223 657 C278 657 314 621 314 567 C314 509 278 472 223 472 L223 472 Z " />
<glyph glyph-name="plusminus" unicode="&#xb1;" horiz-adv-x="532" d="M312 427 L312 593 L218 593 L218 427 L60 427 L60 327 L218 327 L218 157 L312 157 L312 327 L472 327 L472 427 L312 427 Z M60 6 L472 6 L472 100 L60 100 L60 6 Z " />
<glyph glyph-name="uni00B2" unicode="&#xb2;" horiz-adv-x="407" d="M52 349 L351 349 L351 440 L221 440 C245 459 275 483 298 511 C323 541 344 575 344 625 C344 713 278 765 177 765 C100 765 61 736 48 729 L80 653 C88 656 112 667 147 667 C192 667 222 643 226 612 C230 580 215 546 187 513 C142 462 61 414 52 409 L52 349 Z " />
<glyph glyph-name="uni00B3" unicode="&#xb3;" horiz-adv-x="371" d="M211 594 L314 691 L314 757 L38 757 L38 671 L195 671 L82 576 L105 521 C114 526 133 532 159 532 C199 532 223 515 223 484 C223 450 198 430 146 430 C110 430 79 443 62 452 L28 376 C57 360 102 344 166 344 C262 344 326 395 326 479 C326 546 281 589 211 594 L211 594 Z " />
<glyph glyph-name="acute" unicode="&#xb4;" horiz-adv-x="303" d="M53 518 L265 618 L204 723 L10 592 L53 518 Z " />
<glyph glyph-name="paragraph" unicode="&#xb6;" horiz-adv-x="707" d="M617 703 L326 703 C146 703 32 611 32 454 C32 290 144 198 326 198 L336 198 L336 -71 L440 -71 L440 606 L513 606 L513 -71 L617 -71 L617 703 Z M336 295 L327 295 C196 295 128 344 128 454 C128 558 198 606 327 606 L336 606 L336 295 Z " />
<glyph glyph-name="periodcentered" unicode="&#xb7;" horiz-adv-x="262" d="M131 265 C178 265 213 302 213 347 C213 392 178 428 131 428 C85 428 49 392 49 347 C49 302 85 265 131 265 L131 265 Z " />
<glyph glyph-name="cedilla" unicode="&#xb8;" horiz-adv-x="263" d="M125 -243 C201 -243 254 -203 254 -136 C254 -78 212 -38 145 -37 L168 21 L93 21 L57 -78 L70 -93 C81 -91 92 -91 100 -91 C146 -91 165 -109 165 -132 C165 -156 146 -171 112 -171 C83 -171 61 -159 40 -146 L10 -206 C10 -206 56 -243 125 -243 L125 -243 Z " />
<glyph glyph-name="uni00B9" unicode="&#xb9;" horiz-adv-x="289" d="M125 349 L223 349 L223 757 L183 757 L17 694 L43 605 L125 638 L125 349 Z " />
<glyph glyph-name="ordmasculine" unicode="&#xba;" horiz-adv-x="408" d="M205 519 C299 519 360 580 360 673 C360 765 299 826 206 827 C111 828 48 766 48 673 C48 579 111 519 205 519 L205 519 Z M205 594 C158 594 127 625 127 673 C127 721 158 752 205 752 C251 752 281 721 281 673 C281 625 251 594 205 594 L205 594 Z " />
<glyph glyph-name="guillemotright" unicode="&#xbb;" horiz-adv-x="505" d="M45 69 L167 69 L281 246 L167 423 L45 423 L165 246 L45 69 Z M235 69 L356 69 L470 246 L356 423 L235 423 L354 246 L235 69 Z " />
<glyph glyph-name="onequarter" unicode="&#xbc;" horiz-adv-x="808" d="M255 -7 L594 664 L501 712 L163 36 L255 -7 Z M136 296 L235 296 L235 703 L194 703 L29 641 L55 552 L136 585 L136 296 Z M640 0 L732 0 L732 82 L772 82 L772 167 L732 167 L732 294 L640 294 L640 167 L532 167 L620 391 L537 420 L424 143 L424 82 L640 82 L640 0 Z " />
<glyph glyph-name="onehalf" unicode="&#xbd;" horiz-adv-x="854" d="M255 -7 L594 664 L501 712 L163 36 L255 -7 Z M136 296 L235 296 L235 703 L194 703 L29 641 L55 552 L136 585 L136 296 Z M512 0 L811 0 L811 91 L685 91 C709 110 734 134 757 162 C782 192 804 226 804 276 C804 364 736 416 636 416 C559 416 519 387 508 380 L539 304 C548 307 571 318 606 318 C657 318 686 292 687 254 C687 224 670 193 645 164 C601 113 524 66 512 60 L512 0 Z " />
<glyph glyph-name="threequarters" unicode="&#xbe;" horiz-adv-x="837" d="M535 712 L197 36 L289 -7 L628 664 L535 712 Z M326 426 C326 492 281 536 209 541 L313 637 L313 703 L38 703 L38 617 L194 617 L82 522 L105 468 C114 472 131 478 159 478 C199 478 223 460 223 429 C223 395 198 376 146 376 C112 376 79 389 62 398 L28 323 C53 307 100 290 166 290 C262 290 326 341 326 426 L326 426 Z M765 167 L765 294 L673 294 L673 167 L563 167 L653 391 L571 420 L455 143 L455 82 L673 82 L673 0 L765 0 L765 82 L805 82 L805 167 L765 167 Z " />
<glyph glyph-name="questiondown" unicode="&#xbf;" horiz-adv-x="455" d="M273 545 C230 545 198 511 198 468 C198 426 230 393 273 393 C317 393 350 427 350 468 C350 510 317 545 273 545 L273 545 Z M333 332 L215 332 L215 310 C215 169 35 157 35 -11 C35 -129 117 -199 243 -199 C314 -199 371 -183 434 -149 L387 -51 C359 -68 318 -85 266 -85 C200 -85 168 -52 168 1 C168 102 333 127 333 294 L333 332 Z " />
<glyph glyph-name="Agrave" unicode="&#xc0;" horiz-adv-x="701" d="M486 839 L251 939 L210 818 L458 757 L486 839 Z M556 0 L702 0 L396 703 L305 703 L-3 0 L143 0 L199 136 L500 136 L556 0 Z M350 507 L456 253 L243 253 L350 507 Z " />
<glyph glyph-name="Aacute" unicode="&#xc1;" horiz-adv-x="701" d="M490 823 L445 942 L215 834 L245 753 L490 823 Z M556 0 L702 0 L396 703 L305 703 L-3 0 L143 0 L199 136 L500 136 L556 0 Z M350 507 L456 253 L243 253 L350 507 Z " />
<glyph glyph-name="Acircumflex" unicode="&#xc2;" horiz-adv-x="701" d="M350 828 L409 760 L533 760 L402 923 L301 923 L166 760 L290 760 L350 828 Z M556 0 L702 0 L396 703 L305 703 L-3 0 L143 0 L199 136 L500 136 L556 0 Z M350 507 L456 253 L243 253 L350 507 Z " />
<glyph glyph-name="Atilde" unicode="&#xc3;" horiz-adv-x="701" d="M278 809 C328 809 353 761 420 761 C516 761 557 845 558 854 L483 915 C483 913 465 864 422 864 C373 864 341 913 279 913 C181 913 143 830 141 829 L217 767 C217 769 231 809 278 809 L278 809 Z M556 0 L702 0 L396 703 L305 703 L-3 0 L143 0 L199 136 L500 136 L556 0 Z M350 507 L456 253 L243 253 L350 507 Z " />
<glyph glyph-name="Adieresis" unicode="&#xc4;" horiz-adv-x="701" d="M231 769 C273 769 307 800 306 844 C305 888 273 919 231 919 C188 919 153 888 154 844 C155 800 188 769 231 769 L231 769 Z M468 766 C511 766 546 798 545 842 C545 886 511 917 468 917 C426 917 392 886 392 842 C392 798 426 766 468 766 L468 766 Z M556 0 L702 0 L396 703 L305 703 L-3 0 L143 0 L199 136 L500 136 L556 0 Z M350 507 L456 253 L243 253 L350 507 Z " />
<glyph glyph-name="Aring" unicode="&#xc5;" horiz-adv-x="701" d="M350 739 C418 739 468 786 468 852 C468 918 418 965 350 965 C281 965 231 918 231 852 C231 786 281 739 350 739 L350 739 Z M350 897 C374 897 391 880 391 853 C391 828 374 808 350 808 C326 808 308 828 308 853 C308 880 326 897 350 897 L350 897 Z M556 0 L702 0 L396 703 L305 703 L-3 0 L143 0 L199 136 L500 136 L556 0 Z M350 507 L456 253 L243 253 L350 507 Z " />
<glyph glyph-name="AE" unicode="&#xc6;" horiz-adv-x="921" d="M-15 0 L128 0 L206 147 L423 147 L423 0 L869 0 L869 121 L562 121 L562 290 L825 292 L825 414 L562 412 L562 581 L869 581 L869 703 L357 703 L-15 0 Z M265 264 L423 573 L423 264 L265 264 Z " />
<glyph glyph-name="Ccedilla" unicode="&#xc7;" horiz-adv-x="672" d="M649 58 L589 167 C571 155 516 120 425 120 C279 120 185 212 185 352 C185 492 280 583 425 583 C516 583 572 546 588 534 L649 644 C617 668 540 712 417 712 C192 712 43 555 43 351 C43 161 173 11 376 -7 L351 -77 L363 -92 C430 -81 460 -106 457 -135 C454 -157 433 -173 399 -170 C376 -169 353 -159 332 -146 L302 -205 C309 -210 351 -242 417 -242 C493 -242 546 -198 546 -131 C546 -76 504 -39 446 -36 L457 -7 C559 0 621 37 649 58 L649 58 Z " />
<glyph glyph-name="Egrave" unicode="&#xc8;" horiz-adv-x="622" d="M465 839 L230 939 L189 818 L437 757 L465 839 Z M223 121 L223 294 L526 294 L526 416 L223 416 L223 581 L567 581 L567 703 L85 703 L85 0 L570 0 L570 121 L223 121 Z " />
<glyph glyph-name="Eacute" unicode="&#xc9;" horiz-adv-x="622" d="M469 823 L424 942 L194 834 L224 753 L469 823 Z M223 121 L223 294 L526 294 L526 416 L223 416 L223 581 L567 581 L567 703 L85 703 L85 0 L570 0 L570 121 L223 121 Z " />
<glyph glyph-name="Ecircumflex" unicode="&#xca;" horiz-adv-x="622" d="M329 828 L388 760 L512 760 L381 923 L280 923 L145 760 L269 760 L329 828 Z M223 121 L223 294 L526 294 L526 416 L223 416 L223 581 L567 581 L567 703 L85 703 L85 0 L570 0 L570 121 L223 121 Z " />
<glyph glyph-name="Edieresis" unicode="&#xcb;" horiz-adv-x="622" d="M210 769 C252 769 286 800 285 844 C284 888 252 919 210 919 C167 919 132 888 133 844 C134 800 167 769 210 769 L210 769 Z M447 766 C490 766 525 798 524 842 C524 886 490 917 447 917 C405 917 371 886 371 842 C371 798 405 766 447 766 L447 766 Z M223 121 L223 294 L526 294 L526 416 L223 416 L223 581 L567 581 L567 703 L85 703 L85 0 L570 0 L570 121 L223 121 Z " />
<glyph glyph-name="Igrave" unicode="&#xcc;" horiz-adv-x="308" d="M262 757 L290 839 L55 939 L14 818 L262 757 Z M85 0 L223 0 L223 703 L85 703 L85 0 Z " />
<glyph glyph-name="Iacute" unicode="&#xcd;" horiz-adv-x="308" d="M49 753 L294 823 L249 942 L19 834 L49 753 Z M85 0 L223 0 L223 703 L85 703 L85 0 Z " />
<glyph glyph-name="Icircumflex" unicode="&#xce;" horiz-adv-x="308" d="M154 828 L213 760 L337 760 L206 923 L105 923 L-30 760 L94 760 L154 828 Z M85 0 L223 0 L223 703 L85 703 L85 0 Z " />
<glyph glyph-name="Idieresis" unicode="&#xcf;" horiz-adv-x="308" d="M35 769 C77 769 111 800 110 844 C109 888 77 919 35 919 C-8 919 -43 888 -42 844 C-41 800 -8 769 35 769 L35 769 Z M272 766 C315 766 350 798 349 842 C349 886 315 917 272 917 C230 917 196 886 196 842 C196 798 230 766 272 766 L272 766 Z M85 0 L223 0 L223 703 L85 703 L85 0 Z " />
<glyph glyph-name="Eth" unicode="&#xd0;" horiz-adv-x="770" d="M356 703 L85 703 L85 398 L11 398 L11 309 L85 309 L85 0 L356 0 C578 0 725 141 725 352 C725 563 578 703 356 703 L356 703 Z M350 122 L223 122 L223 309 L371 309 L371 398 L223 398 L223 581 L350 581 C497 581 585 489 585 350 C585 213 497 122 350 122 L350 122 Z " />
<glyph glyph-name="Ntilde" unicode="&#xd1;" horiz-adv-x="803" d="M325 809 C375 809 400 761 467 761 C563 761 604 845 605 854 L530 915 C530 913 512 864 469 864 C420 864 388 913 326 913 C228 913 190 830 188 829 L264 767 C264 769 278 809 325 809 L325 809 Z M582 703 L582 241 L164 710 L86 710 L86 0 L221 0 L221 462 L640 -8 L718 -8 L718 703 L582 703 Z " />
<glyph glyph-name="Ograve" unicode="&#xd2;" horiz-adv-x="825" d="M520 757 L548 839 L313 939 L272 818 L520 757 Z M414 -9 C627 -9 782 144 782 350 C782 558 627 712 414 712 C199 712 42 554 42 350 C42 147 199 -9 414 -9 L414 -9 Z M414 118 C281 118 183 218 183 350 C183 483 281 584 414 584 C544 584 641 484 641 350 C641 217 544 118 414 118 L414 118 Z " />
<glyph glyph-name="Oacute" unicode="&#xd3;" horiz-adv-x="825" d="M307 753 L552 823 L507 942 L277 834 L307 753 Z M414 -9 C627 -9 782 144 782 350 C782 558 627 712 414 712 C199 712 42 554 42 350 C42 147 199 -9 414 -9 L414 -9 Z M414 118 C281 118 183 218 183 350 C183 483 281 584 414 584 C544 584 641 484 641 350 C641 217 544 118 414 118 L414 118 Z " />
<glyph glyph-name="Ocircumflex" unicode="&#xd4;" horiz-adv-x="825" d="M412 828 L471 760 L595 760 L464 923 L363 923 L228 760 L352 760 L412 828 Z M414 712 C199 712 42 554 42 350 C42 147 199 -9 414 -9 C627 -9 782 144 782 350 C782 558 627 712 414 712 L414 712 Z M414 118 C281 118 183 218 183 350 C183 483 281 584 414 584 C544 584 641 484 641 350 C641 217 544 118 414 118 L414 118 Z " />
<glyph glyph-name="Otilde" unicode="&#xd5;" horiz-adv-x="825" d="M482 761 C578 761 619 845 620 854 L545 915 C545 913 527 864 484 864 C435 864 403 913 341 913 C243 913 205 830 203 829 L279 767 C279 769 293 809 340 809 C390 809 415 761 482 761 L482 761 Z M414 -9 C627 -9 782 144 782 350 C782 558 627 712 414 712 C199 712 42 554 42 350 C42 147 199 -9 414 -9 L414 -9 Z M414 118 C281 118 183 218 183 350 C183 483 281 584 414 584 C544 584 641 484 641 350 C641 217 544 118 414 118 L414 118 Z " />
<glyph glyph-name="Odieresis" unicode="&#xd6;" horiz-adv-x="825" d="M293 769 C335 769 369 800 368 844 C367 888 335 919 293 919 C250 919 215 888 216 844 C217 800 250 769 293 769 L293 769 Z M530 766 C573 766 608 798 607 842 C607 886 573 917 530 917 C488 917 454 886 454 842 C454 798 488 766 530 766 L530 766 Z M414 -9 C627 -9 782 144 782 350 C782 558 627 712 414 712 C199 712 42 554 42 350 C42 147 199 -9 414 -9 L414 -9 Z M414 118 C281 118 183 218 183 350 C183 483 281 584 414 584 C544 584 641 484 641 350 C641 217 544 118 414 118 L414 118 Z " />
<glyph glyph-name="multiply" unicode="&#xd7;" horiz-adv-x="521" d="M475 430 L403 505 L261 365 L122 506 L49 433 L187 293 L47 154 L120 81 L260 219 L399 78 L471 150 L333 291 L475 430 Z " />
<glyph glyph-name="Oslash" unicode="&#xd8;" horiz-adv-x="825" d="M674 613 L727 683 L647 743 L592 671 C540 697 480 712 414 712 C199 712 42 554 42 350 C42 246 84 154 153 89 L99 17 L180 -43 L236 32 C288 6 348 -9 414 -9 C627 -9 782 144 782 350 C782 456 742 548 674 613 L674 613 Z M183 350 C183 483 281 584 414 584 C449 584 482 577 511 563 L236 198 C203 239 183 291 183 350 L183 350 Z M414 118 C379 118 346 125 316 138 L590 501 C622 461 641 409 641 350 C641 217 544 118 414 118 L414 118 Z " />
<glyph glyph-name="Ugrave" unicode="&#xd9;" horiz-adv-x="770" d="M493 757 L521 839 L286 939 L245 818 L493 757 Z M385 -9 C571 -9 694 99 694 302 L694 703 L557 703 L557 291 C557 196 501 116 386 116 C270 116 214 196 214 291 L214 703 L76 703 L76 302 C76 99 199 -9 385 -9 L385 -9 Z " />
<glyph glyph-name="Uacute" unicode="&#xda;" horiz-adv-x="770" d="M280 753 L525 823 L480 942 L250 834 L280 753 Z M385 -9 C571 -9 694 99 694 302 L694 703 L557 703 L557 291 C557 196 501 116 386 116 C270 116 214 196 214 291 L214 703 L76 703 L76 302 C76 99 199 -9 385 -9 L385 -9 Z " />
<glyph glyph-name="Ucircumflex" unicode="&#xdb;" horiz-adv-x="770" d="M385 828 L444 760 L568 760 L437 923 L336 923 L201 760 L325 760 L385 828 Z M557 703 L557 291 C557 196 501 116 386 116 C270 116 214 196 214 291 L214 703 L76 703 L76 302 C76 99 199 -9 385 -9 C571 -9 694 99 694 302 L694 703 L557 703 Z " />
<glyph glyph-name="Udieresis" unicode="&#xdc;" horiz-adv-x="770" d="M266 769 C308 769 342 800 341 844 C340 888 308 919 266 919 C223 919 188 888 189 844 C190 800 223 769 266 769 L266 769 Z M503 766 C546 766 581 798 580 842 C580 886 546 917 503 917 C461 917 427 886 427 842 C427 798 461 766 503 766 L503 766 Z M385 -9 C571 -9 694 99 694 302 L694 703 L557 703 L557 291 C557 196 501 116 386 116 C270 116 214 196 214 291 L214 703 L76 703 L76 302 C76 99 199 -9 385 -9 L385 -9 Z " />
<glyph glyph-name="Yacute" unicode="&#xdd;" horiz-adv-x="675" d="M484 823 L439 942 L209 834 L239 753 L484 823 Z M667 703 L511 703 L343 410 L175 703 L10 703 L268 274 L268 0 L406 0 L406 274 L667 703 Z " />
<glyph glyph-name="Thorn" unicode="&#xde;" horiz-adv-x="668" d="M339 603 L229 603 L229 703 L85 703 L85 0 L229 0 L229 93 L338 93 C519 93 630 198 630 348 C630 498 519 603 339 603 L339 603 Z M330 223 L229 223 L229 471 L330 471 C428 471 483 416 483 348 C483 279 428 223 330 223 L330 223 Z " />
<glyph glyph-name="germandbls" unicode="&#xdf;" horiz-adv-x="575" d="M432 375 C472 409 493 457 493 512 C493 624 416 712 280 712 C154 712 62 623 62 506 L62 0 L194 0 L194 496 C194 548 230 583 281 583 C331 583 369 549 369 495 C369 444 335 398 266 398 L256 398 L256 297 L308 297 C374 297 421 266 421 205 C421 143 376 111 323 111 C298 111 276 114 257 123 L232 10 C262 -3 302 -9 347 -9 C476 -9 554 78 554 199 C553 282 512 344 432 375 L432 375 Z " />
<glyph glyph-name="agrave" unicode="&#xe0;" horiz-adv-x="593" d="M427 592 L233 723 L172 618 L384 518 L427 592 Z M410 460 L404 416 C370 447 322 469 261 469 C134 469 37 366 37 230 C37 94 131 -9 258 -9 C326 -9 376 21 410 63 L415 0 L531 0 L531 460 L410 460 Z M287 110 C220 110 169 162 169 230 C169 299 220 350 287 350 C359 350 405 300 405 230 C406 161 359 110 287 110 L287 110 Z " />
<glyph glyph-name="aacute" unicode="&#xe1;" horiz-adv-x="593" d="M432 618 L371 723 L177 592 L220 518 L432 618 Z M410 460 L404 416 C370 447 322 469 261 469 C134 469 37 366 37 230 C37 94 131 -9 258 -9 C326 -9 376 21 410 63 L415 0 L531 0 L531 460 L410 460 Z M287 110 C220 110 169 162 169 230 C169 299 220 350 287 350 C359 350 405 300 405 230 C406 161 359 110 287 110 L287 110 Z " />
<glyph glyph-name="acircumflex" unicode="&#xe2;" horiz-adv-x="593" d="M303 615 L363 532 L472 532 L355 707 L254 707 L133 532 L243 532 L303 615 Z M410 460 L404 416 C370 447 322 469 261 469 C134 469 37 366 37 230 C37 94 131 -9 258 -9 C326 -9 376 21 410 63 L415 0 L531 0 L531 460 L410 460 Z M287 110 C220 110 169 162 169 230 C169 299 220 350 287 350 C359 350 405 300 405 230 C406 161 359 110 287 110 L287 110 Z " />
<glyph glyph-name="atilde" unicode="&#xe3;" horiz-adv-x="593" d="M240 588 C283 588 305 540 370 540 C450 540 493 618 497 635 L422 695 C420 689 404 648 364 648 C321 648 295 697 226 697 C145 697 106 609 105 609 L180 547 C184 554 196 588 240 588 L240 588 Z M410 460 L404 416 C370 447 322 469 261 469 C134 469 37 366 37 230 C37 94 131 -9 258 -9 C326 -9 376 21 410 63 L415 0 L531 0 L531 460 L410 460 Z M287 110 C220 110 169 162 169 230 C169 299 220 350 287 350 C359 350 405 300 405 230 C406 161 359 110 287 110 L287 110 Z " />
<glyph glyph-name="adieresis" unicode="&#xe4;" horiz-adv-x="593" d="M192 551 C234 551 269 583 268 626 C267 671 234 702 192 702 C150 702 115 671 116 626 C116 583 150 551 192 551 L192 551 Z M413 549 C456 549 491 580 490 624 C489 668 456 700 413 700 C371 700 336 668 337 624 C338 580 371 549 413 549 L413 549 Z M410 460 L404 416 C370 447 322 469 261 469 C134 469 37 366 37 230 C37 94 131 -9 258 -9 C326 -9 376 21 410 63 L415 0 L531 0 L531 460 L410 460 Z M287 110 C220 110 169 162 169 230 C169 299 220 350 287 350 C359 350 405 300 405 230 C406 161 359 110 287 110 L287 110 Z " />
<glyph glyph-name="aring" unicode="&#xe5;" horiz-adv-x="593" d="M303 516 C372 516 421 563 421 629 C421 695 372 743 303 743 C233 743 183 695 183 629 C183 563 233 516 303 516 L303 516 Z M303 675 C327 675 345 658 345 630 C345 604 327 585 303 585 C278 585 260 604 260 630 C260 658 278 675 303 675 L303 675 Z M410 460 L404 416 C370 447 322 469 261 469 C134 469 37 366 37 230 C37 94 131 -9 258 -9 C326 -9 376 21 410 63 L415 0 L531 0 L531 460 L410 460 Z M287 110 C220 110 169 162 169 230 C169 299 220 350 287 350 C359 350 405 300 405 230 C406 161 359 110 287 110 L287 110 Z " />
<glyph glyph-name="ae" unicode="&#xe6;" horiz-adv-x="922" d="M912 229 C912 374 822 469 692 469 C628 469 574 446 534 409 L527 460 L422 460 L415 410 C380 448 331 469 267 469 C133 469 37 366 37 230 C37 94 130 -9 257 -9 C324 -9 376 15 412 55 L422 0 L527 0 L536 50 C578 13 635 -9 706 -9 C803 -9 863 31 891 57 L826 142 C801 120 773 101 710 101 C638 101 587 141 572 194 L910 194 C910 194 912 212 912 229 L912 229 Z M685 365 C742 365 781 330 787 278 L573 278 C588 335 631 365 685 365 L685 365 Z M287 110 C218 110 169 162 169 230 C169 300 218 350 287 350 C359 350 405 300 405 230 C406 161 359 110 287 110 L287 110 Z " />
<glyph glyph-name="ccedilla" unicode="&#xe7;" horiz-adv-x="485" d="M457 43 L405 141 C384 127 353 110 302 110 C223 110 170 160 170 230 C170 300 224 350 304 350 C352 350 384 333 405 319 L458 418 C431 437 380 469 289 469 C145 469 36 364 36 230 C36 112 117 18 236 -4 L209 -78 L222 -93 C233 -91 244 -91 252 -91 C298 -91 317 -109 317 -132 C317 -156 298 -171 264 -171 C235 -171 213 -159 192 -146 L162 -206 C162 -206 208 -243 277 -243 C353 -243 406 -203 406 -136 C406 -78 364 -38 297 -37 L308 -8 C387 -4 431 26 457 43 L457 43 Z " />
<glyph glyph-name="egrave" unicode="&#xe8;" horiz-adv-x="541" d="M401 592 L207 723 L146 618 L358 518 L401 592 Z M506 229 C506 367 416 469 277 469 C136 469 37 364 37 230 C37 95 144 -9 290 -9 C395 -9 452 29 480 54 L426 148 C406 132 371 101 304 101 C232 101 181 141 166 194 L504 194 C504 194 506 212 506 229 L506 229 Z M282 365 C334 365 375 330 381 278 L167 278 C182 335 225 365 282 365 L282 365 Z " />
<glyph glyph-name="eacute" unicode="&#xe9;" horiz-adv-x="541" d="M406 618 L345 723 L151 592 L194 518 L406 618 Z M506 229 C506 367 416 469 277 469 C136 469 37 364 37 230 C37 95 144 -9 290 -9 C395 -9 452 29 480 54 L426 148 C406 132 371 101 304 101 C232 101 181 141 166 194 L504 194 C504 194 506 212 506 229 L506 229 Z M282 365 C334 365 375 330 381 278 L167 278 C182 335 225 365 282 365 L282 365 Z " />
<glyph glyph-name="ecircumflex" unicode="&#xea;" horiz-adv-x="541" d="M277 615 L337 532 L446 532 L329 707 L228 707 L107 532 L217 532 L277 615 Z M506 229 C506 367 416 469 277 469 C136 469 37 364 37 230 C37 95 144 -9 290 -9 C395 -9 452 29 480 54 L426 148 C406 132 371 101 304 101 C232 101 181 141 166 194 L504 194 C504 194 506 212 506 229 L506 229 Z M282 365 C334 365 375 330 381 278 L167 278 C182 335 225 365 282 365 L282 365 Z " />
<glyph glyph-name="edieresis" unicode="&#xeb;" horiz-adv-x="541" d="M166 551 C208 551 243 583 242 626 C241 671 208 702 166 702 C124 702 89 671 90 626 C90 583 124 551 166 551 L166 551 Z M387 549 C430 549 465 580 464 624 C463 668 430 700 387 700 C345 700 310 668 311 624 C312 580 345 549 387 549 L387 549 Z M506 229 C506 367 416 469 277 469 C136 469 37 364 37 230 C37 95 144 -9 290 -9 C395 -9 452 29 480 54 L426 148 C406 132 371 101 304 101 C232 101 181 141 166 194 L504 194 C504 194 506 212 506 229 L506 229 Z M282 365 C334 365 375 330 381 278 L167 278 C182 335 225 365 282 365 L282 365 Z " />
<glyph glyph-name="igrave" unicode="&#xec;" horiz-adv-x="257" d="M209 518 L252 592 L58 723 L-3 618 L209 518 Z M63 0 L194 0 L194 460 L63 460 L63 0 Z " />
<glyph glyph-name="iacute" unicode="&#xed;" horiz-adv-x="257" d="M45 518 L257 618 L196 723 L2 592 L45 518 Z M63 0 L194 0 L194 460 L63 460 L63 0 Z " />
<glyph glyph-name="icircumflex" unicode="&#xee;" horiz-adv-x="257" d="M128 615 L188 532 L297 532 L180 707 L79 707 L-42 532 L68 532 L128 615 Z M63 0 L194 0 L194 460 L63 460 L63 0 Z " />
<glyph glyph-name="idieresis" unicode="&#xef;" horiz-adv-x="257" d="M17 551 C59 551 94 583 93 626 C92 671 59 702 17 702 C-25 702 -60 671 -59 626 C-59 583 -25 551 17 551 L17 551 Z M238 549 C281 549 316 580 315 624 C314 668 281 700 238 700 C196 700 161 668 162 624 C163 580 196 549 238 549 L238 549 Z M63 0 L194 0 L194 460 L63 460 L63 0 Z " />
<glyph glyph-name="eth" unicode="&#xf0;" horiz-adv-x="589" d="M348 624 L405 683 L350 730 L287 666 C260 683 232 699 203 714 L132 622 C158 609 183 596 205 582 L152 528 L207 481 L267 542 C315 506 353 468 379 425 C346 444 306 455 262 455 C129 455 37 361 37 229 C37 86 142 -9 290 -9 C448 -9 549 102 549 271 C548 423 467 535 348 624 L348 624 Z M293 107 C215 107 162 155 162 227 C162 299 215 349 293 349 C370 349 423 299 423 229 C423 156 372 107 293 107 L293 107 Z " />
<glyph glyph-name="ntilde" unicode="&#xf1;" horiz-adv-x="588" d="M237 588 C280 588 302 540 367 540 C447 540 490 618 494 635 L419 695 C417 689 401 648 361 648 C318 648 292 697 223 697 C142 697 103 609 102 609 L177 547 C181 554 193 588 237 588 L237 588 Z M330 469 C246 469 188 430 161 382 L156 460 L62 460 L62 0 L193 0 L193 240 C193 301 234 351 300 351 C360 351 401 306 401 236 L401 0 L532 0 L532 254 C532 385 453 469 330 469 L330 469 Z " />
<glyph glyph-name="ograve" unicode="&#xf2;" horiz-adv-x="570" d="M366 518 L409 592 L215 723 L154 618 L366 518 Z M285 -9 C423 -9 534 94 534 230 C534 366 423 469 285 469 C147 469 36 366 36 230 C36 94 147 -9 285 -9 L285 -9 Z M285 110 C219 110 168 163 168 230 C168 296 219 350 285 350 C352 350 402 296 402 230 C402 163 352 110 285 110 L285 110 Z " />
<glyph glyph-name="oacute" unicode="&#xf3;" horiz-adv-x="570" d="M202 518 L414 618 L353 723 L159 592 L202 518 Z M285 -9 C423 -9 534 94 534 230 C534 366 423 469 285 469 C147 469 36 366 36 230 C36 94 147 -9 285 -9 L285 -9 Z M285 110 C219 110 168 163 168 230 C168 296 219 350 285 350 C352 350 402 296 402 230 C402 163 352 110 285 110 L285 110 Z " />
<glyph glyph-name="ocircumflex" unicode="&#xf4;" horiz-adv-x="570" d="M285 615 L345 532 L454 532 L337 707 L236 707 L115 532 L225 532 L285 615 Z M285 469 C147 469 36 366 36 230 C36 94 147 -9 285 -9 C423 -9 534 94 534 230 C534 366 423 469 285 469 L285 469 Z M285 110 C219 110 168 163 168 230 C168 296 219 350 285 350 C352 350 402 296 402 230 C402 163 352 110 285 110 L285 110 Z " />
<glyph glyph-name="otilde" unicode="&#xf5;" horiz-adv-x="570" d="M352 540 C432 540 475 618 479 635 L404 695 C402 689 386 648 346 648 C303 648 277 697 208 697 C127 697 88 609 87 609 L162 547 C166 554 178 588 222 588 C265 588 287 540 352 540 L352 540 Z M285 -9 C423 -9 534 94 534 230 C534 366 423 469 285 469 C147 469 36 366 36 230 C36 94 147 -9 285 -9 L285 -9 Z M285 110 C219 110 168 163 168 230 C168 296 219 350 285 350 C352 350 402 296 402 230 C402 163 352 110 285 110 L285 110 Z " />
<glyph glyph-name="odieresis" unicode="&#xf6;" horiz-adv-x="570" d="M174 551 C216 551 251 583 250 626 C249 671 216 702 174 702 C132 702 97 671 98 626 C98 583 132 551 174 551 L174 551 Z M395 549 C438 549 473 580 472 624 C471 668 438 700 395 700 C353 700 318 668 319 624 C320 580 353 549 395 549 L395 549 Z M285 -9 C423 -9 534 94 534 230 C534 366 423 469 285 469 C147 469 36 366 36 230 C36 94 147 -9 285 -9 L285 -9 Z M285 110 C219 110 168 163 168 230 C168 296 219 350 285 350 C352 350 402 296 402 230 C402 163 352 110 285 110 L285 110 Z " />
<glyph glyph-name="divide" unicode="&#xf7;" horiz-adv-x="537" d="M274 407 C315 407 341 433 341 474 C341 515 315 540 274 540 C234 540 209 515 209 474 C209 433 234 407 274 407 L274 407 Z M46 241 L503 241 L503 345 L46 345 L46 241 Z M274 31 C315 31 341 58 341 99 C341 139 315 165 274 165 C234 165 209 139 209 99 C209 58 234 31 274 31 L274 31 Z " />
<glyph glyph-name="oslash" unicode="&#xf8;" horiz-adv-x="570" d="M469 393 L514 450 L445 505 L397 444 C364 460 325 469 285 469 C147 469 36 366 36 230 C36 166 61 109 102 67 L55 7 L124 -47 L173 16 C207 0 245 -9 285 -9 C423 -9 534 94 534 230 C534 294 509 351 469 393 L469 393 Z M168 230 C168 296 219 350 285 350 C297 350 309 348 320 345 L183 170 C173 188 168 208 168 230 L168 230 Z M285 110 C273 110 262 112 251 115 L387 289 C397 271 402 251 402 230 C402 163 352 110 285 110 L285 110 Z " />
<glyph glyph-name="ugrave" unicode="&#xf9;" horiz-adv-x="580" d="M409 592 L215 723 L154 618 L366 518 L409 592 Z M387 460 L387 228 C387 167 349 117 284 117 C227 117 187 163 187 232 L187 460 L56 460 L56 206 C56 77 144 -9 268 -9 C332 -9 382 20 409 60 L413 0 L518 0 L518 460 L387 460 Z " />
<glyph glyph-name="uacute" unicode="&#xfa;" horiz-adv-x="580" d="M414 618 L353 723 L159 592 L202 518 L414 618 Z M387 460 L387 228 C387 167 349 117 284 117 C227 117 187 163 187 232 L187 460 L56 460 L56 206 C56 77 144 -9 268 -9 C332 -9 382 20 409 60 L413 0 L518 0 L518 460 L387 460 Z " />
<glyph glyph-name="ucircumflex" unicode="&#xfb;" horiz-adv-x="580" d="M285 615 L345 532 L454 532 L337 707 L236 707 L115 532 L225 532 L285 615 Z M387 460 L387 228 C387 167 349 117 284 117 C227 117 187 163 187 232 L187 460 L56 460 L56 206 C56 77 144 -9 268 -9 C332 -9 382 20 409 60 L413 0 L518 0 L518 460 L387 460 Z " />
<glyph glyph-name="udieresis" unicode="&#xfc;" horiz-adv-x="580" d="M174 551 C216 551 251 583 250 626 C249 671 216 702 174 702 C132 702 97 671 98 626 C98 583 132 551 174 551 L174 551 Z M395 549 C438 549 473 580 472 624 C471 668 438 700 395 700 C353 700 318 668 319 624 C320 580 353 549 395 549 L395 549 Z M387 460 L387 228 C387 167 349 117 284 117 C227 117 187 163 187 232 L187 460 L56 460 L56 206 C56 77 144 -9 268 -9 C332 -9 382 20 409 60 L413 0 L518 0 L518 460 L387 460 Z " />
<glyph glyph-name="yacute" unicode="&#xfd;" horiz-adv-x="533" d="M405 618 L344 723 L150 592 L193 518 L405 618 Z M526 460 L391 460 L275 150 L157 460 L10 460 L206 1 L129 -195 L258 -195 L346 19 L526 460 Z " />
<glyph glyph-name="thorn" unicode="&#xfe;" horiz-adv-x="593" d="M62 -195 L183 -195 L183 65 C214 25 265 -9 335 -9 C462 -9 556 94 556 230 C556 366 458 469 331 469 C268 469 220 443 188 411 L188 714 L62 714 L62 -195 Z M306 110 C234 110 188 160 188 230 C188 299 234 350 306 350 C373 350 424 299 424 230 C424 162 373 110 306 110 L306 110 Z " />
<glyph glyph-name="ydieresis" unicode="&#xff;" horiz-adv-x="533" d="M165 551 C207 551 242 583 241 626 C240 671 207 702 165 702 C123 702 88 671 89 626 C89 583 123 551 165 551 L165 551 Z M386 549 C429 549 464 580 463 624 C462 668 429 700 386 700 C344 700 309 668 310 624 C311 580 344 549 386 549 L386 549 Z M526 460 L391 460 L275 150 L157 460 L10 460 L206 1 L129 -195 L258 -195 L346 19 L526 460 Z " />
<glyph glyph-name="Amacron" unicode="&#x100;" horiz-adv-x="701" d="M517 873 L183 873 L183 771 L517 771 L517 873 Z M556 0 L702 0 L396 703 L305 703 L-3 0 L143 0 L199 136 L500 136 L556 0 Z M350 507 L456 253 L243 253 L350 507 Z " />
<glyph glyph-name="amacron" unicode="&#x101;" horiz-adv-x="593" d="M457 655 L148 655 L148 554 L457 554 L457 655 Z M410 460 L404 416 C370 447 322 469 261 469 C134 469 37 366 37 230 C37 94 131 -9 258 -9 C326 -9 376 21 410 63 L415 0 L531 0 L531 460 L410 460 Z M287 110 C220 110 169 162 169 230 C169 299 220 350 287 350 C359 350 405 300 405 230 C406 161 359 110 287 110 L287 110 Z " />
<glyph glyph-name="Abreve" unicode="&#x102;" horiz-adv-x="701" d="M349 765 C447 765 516 824 516 917 L415 917 C415 879 389 854 349 854 C311 854 286 879 286 917 L185 917 C185 824 252 765 349 765 L349 765 Z M556 0 L702 0 L396 703 L305 703 L-3 0 L143 0 L199 136 L500 136 L556 0 Z M350 507 L456 253 L243 253 L350 507 Z " />
<glyph glyph-name="abreve" unicode="&#x103;" horiz-adv-x="593" d="M302 534 C399 534 468 597 468 698 L368 698 C368 651 342 621 302 621 C264 621 238 651 238 698 L138 698 C138 597 206 534 302 534 L302 534 Z M410 460 L404 416 C370 447 322 469 261 469 C134 469 37 366 37 230 C37 94 131 -9 258 -9 C326 -9 376 21 410 63 L415 0 L531 0 L531 460 L410 460 Z M287 110 C220 110 169 162 169 230 C169 299 220 350 287 350 C359 350 405 300 405 230 C406 161 359 110 287 110 L287 110 Z " />
<glyph glyph-name="Aogonek" unicode="&#x104;" horiz-adv-x="701" d="M685 -134 C677 -140 669 -146 653 -146 C627 -146 609 -131 609 -101 C609 -41 684 0 684 0 L702 0 L396 703 L305 703 L-3 0 L143 0 L199 136 L500 136 L556 0 L581 0 C547 -27 509 -70 509 -129 C509 -194 559 -235 622 -235 C666 -235 695 -223 719 -205 L685 -134 Z M350 507 L456 253 L243 253 L350 507 Z " />
<glyph glyph-name="aogonek" unicode="&#x105;" horiz-adv-x="593" d="M531 -138 C523 -144 514 -150 497 -150 C472 -150 453 -136 453 -104 C453 -43 531 0 531 0 L531 460 L410 460 L404 416 C370 447 322 469 261 469 C134 469 37 366 37 230 C37 94 131 -9 258 -9 C326 -9 376 21 410 63 L415 0 L424 0 C391 -28 356 -72 356 -131 C356 -197 405 -237 471 -237 C514 -237 542 -224 565 -206 L531 -138 Z M287 110 C220 110 169 162 169 230 C169 299 220 350 287 350 C359 350 405 300 405 230 C406 161 359 110 287 110 L287 110 Z " />
<glyph glyph-name="Cacute" unicode="&#x106;" horiz-adv-x="672" d="M293 753 L538 823 L493 942 L263 834 L293 753 Z M417 -9 C543 -9 617 34 649 58 L589 167 C571 155 516 120 425 120 C279 120 185 212 185 352 C185 492 280 583 425 583 C516 583 572 546 588 534 L649 644 C617 668 540 712 417 712 C192 712 43 555 43 351 C43 148 191 -9 417 -9 L417 -9 Z " />
<glyph glyph-name="cacute" unicode="&#x107;" horiz-adv-x="485" d="M190 518 L402 618 L341 723 L147 592 L190 518 Z M289 -9 C380 -9 429 25 457 43 L405 141 C384 127 353 110 302 110 C223 110 170 160 170 230 C170 300 224 350 304 350 C352 350 384 333 405 319 L458 418 C431 437 380 469 289 469 C145 469 36 364 36 230 C36 95 142 -9 289 -9 L289 -9 Z " />
<glyph glyph-name="Cdotaccent" unicode="&#x10a;" horiz-adv-x="672" d="M399 760 C444 760 480 794 479 840 C479 886 443 920 398 920 C353 920 317 886 318 840 C318 794 354 760 399 760 L399 760 Z M417 -9 C543 -9 617 34 649 58 L589 167 C571 155 516 120 425 120 C279 120 185 212 185 352 C185 492 280 583 425 583 C516 583 572 546 588 534 L649 644 C617 668 540 712 417 712 C192 712 43 555 43 351 C43 148 191 -9 417 -9 L417 -9 Z " />
<glyph glyph-name="cdotaccent" unicode="&#x10b;" horiz-adv-x="485" d="M272 545 C315 545 350 576 350 622 C349 666 315 698 272 698 C229 698 194 666 195 621 C196 577 229 545 272 545 L272 545 Z M289 -9 C380 -9 429 25 457 43 L405 141 C384 127 353 110 302 110 C223 110 170 160 170 230 C170 300 224 350 304 350 C352 350 384 333 405 319 L458 418 C431 437 380 469 289 469 C145 469 36 364 36 230 C36 95 142 -9 289 -9 L289 -9 Z " />
<glyph glyph-name="Ccaron" unicode="&#x10c;" horiz-adv-x="672" d="M455 760 L591 923 L467 923 L408 855 L348 923 L224 923 L355 760 L455 760 Z M425 120 C279 120 185 212 185 352 C185 492 280 583 425 583 C516 583 572 546 588 534 L649 644 C617 668 540 712 417 712 C192 712 43 555 43 351 C43 148 191 -9 417 -9 C543 -9 617 34 649 58 L589 167 C571 155 516 120 425 120 L425 120 Z " />
<glyph glyph-name="ccaron" unicode="&#x10d;" horiz-adv-x="485" d="M320 532 L442 707 L332 707 L272 623 L212 707 L103 707 L220 532 L320 532 Z M302 110 C223 110 170 160 170 230 C170 300 224 350 304 350 C352 350 384 333 405 319 L458 418 C431 437 380 469 289 469 C145 469 36 364 36 230 C36 95 142 -9 289 -9 C380 -9 429 25 457 43 L405 141 C384 127 353 110 302 110 L302 110 Z " />
<glyph glyph-name="Dcaron" unicode="&#x10e;" horiz-adv-x="770" d="M420 760 L556 923 L432 923 L373 855 L313 923 L189 923 L320 760 L420 760 Z M356 703 L85 703 L85 0 L356 0 C578 0 725 141 725 352 C725 563 578 703 356 703 L356 703 Z M350 122 L223 122 L223 581 L350 581 C497 581 585 489 585 350 C585 213 497 122 350 122 L350 122 Z " />
<glyph glyph-name="dcaron" unicode="&#x10f;" horiz-adv-x="660" d="M262 -9 C333 -9 386 24 421 68 L425 0 L530 0 L530 714 L399 714 L399 402 C369 440 321 469 258 469 C131 469 37 366 37 230 C37 94 135 -9 262 -9 L262 -9 Z M617 446 C686 480 731 554 730 629 C730 681 697 714 649 714 C598 714 564 682 565 634 C566 594 591 567 627 567 C632 567 637 567 640 568 C640 545 614 512 581 487 L617 446 Z M287 110 C220 110 169 161 169 230 C169 298 220 350 287 350 C358 350 404 300 405 230 C404 158 358 110 287 110 L287 110 Z " />
<glyph glyph-name="Dcroat" unicode="&#x110;" horiz-adv-x="770" d="M356 703 L85 703 L85 398 L11 398 L11 309 L85 309 L85 0 L356 0 C578 0 725 141 725 352 C725 563 578 703 356 703 L356 703 Z M350 122 L223 122 L223 309 L371 309 L371 398 L223 398 L223 581 L350 581 C497 581 585 489 585 350 C585 213 497 122 350 122 L350 122 Z " />
<glyph glyph-name="dcroat" unicode="&#x111;" horiz-adv-x="592" d="M585 634 L530 634 L530 714 L400 714 L400 634 L254 634 L254 545 L400 545 L400 408 C367 444 319 469 258 469 C131 469 37 366 37 230 C37 94 135 -9 262 -9 C331 -9 383 20 419 61 L424 0 L530 0 L530 545 L585 545 L585 634 Z M287 110 C220 110 169 161 169 230 C169 298 220 350 287 350 C359 350 405 298 405 230 C405 160 359 110 287 110 L287 110 Z " />
<glyph glyph-name="Emacron" unicode="&#x112;" horiz-adv-x="622" d="M496 873 L162 873 L162 771 L496 771 L496 873 Z M223 121 L223 294 L526 294 L526 416 L223 416 L223 581 L567 581 L567 703 L85 703 L85 0 L570 0 L570 121 L223 121 Z " />
<glyph glyph-name="emacron" unicode="&#x113;" horiz-adv-x="541" d="M431 655 L122 655 L122 554 L431 554 L431 655 Z M506 229 C506 367 416 469 277 469 C136 469 37 364 37 230 C37 95 144 -9 290 -9 C395 -9 452 29 480 54 L426 148 C406 132 371 101 304 101 C232 101 181 141 166 194 L504 194 C504 194 506 212 506 229 L506 229 Z M282 365 C334 365 375 330 381 278 L167 278 C182 335 225 365 282 365 L282 365 Z " />
<glyph glyph-name="Edotaccent" unicode="&#x116;" horiz-adv-x="622" d="M330 760 C375 760 411 794 410 840 C410 886 374 920 329 920 C284 920 248 886 249 840 C249 794 285 760 330 760 L330 760 Z M223 121 L223 294 L526 294 L526 416 L223 416 L223 581 L567 581 L567 703 L85 703 L85 0 L570 0 L570 121 L223 121 Z " />
<glyph glyph-name="edotaccent" unicode="&#x117;" horiz-adv-x="541" d="M276 545 C319 545 354 576 354 622 C353 666 319 698 276 698 C233 698 198 666 199 621 C200 577 233 545 276 545 L276 545 Z M506 229 C506 367 416 469 277 469 C136 469 37 364 37 230 C37 95 144 -9 290 -9 C395 -9 452 29 480 54 L426 148 C406 132 371 101 304 101 C232 101 181 141 166 194 L504 194 C504 194 506 212 506 229 L506 229 Z M282 365 C334 365 375 330 381 278 L167 278 C182 335 225 365 282 365 L282 365 Z " />
<glyph glyph-name="Eogonek" unicode="&#x118;" horiz-adv-x="622" d="M571 -134 C563 -140 555 -146 539 -146 C513 -146 495 -131 495 -101 C495 -41 570 0 570 0 L570 121 L223 121 L223 294 L526 294 L526 416 L223 416 L223 581 L567 581 L567 703 L85 703 L85 0 L467 0 C433 -27 395 -70 395 -129 C395 -194 445 -235 508 -235 C552 -235 581 -223 605 -205 L571 -134 Z " />
<glyph glyph-name="eogonek" unicode="&#x119;" horiz-adv-x="541" d="M480 -84 C472 -90 463 -96 446 -96 C421 -96 402 -82 402 -50 C402 -17 424 10 445 28 C460 37 471 46 480 54 L426 148 C406 132 371 101 304 101 C232 101 181 141 166 194 L504 194 C504 194 506 212 506 229 C506 367 416 469 277 469 C136 469 37 364 37 230 C37 95 144 -9 290 -9 C301 -9 312 -9 322 -8 C312 -28 305 -51 305 -77 C305 -143 354 -183 420 -183 C463 -183 491 -170 514 -152 L480 -84 Z M282 365 C334 365 375 330 381 278 L167 278 C182 335 225 365 282 365 L282 365 Z " />
<glyph glyph-name="Ecaron" unicode="&#x11a;" horiz-adv-x="622" d="M376 760 L512 923 L388 923 L329 855 L269 923 L145 923 L276 760 L376 760 Z M223 121 L223 294 L526 294 L526 416 L223 416 L223 581 L567 581 L567 703 L85 703 L85 0 L570 0 L570 121 L223 121 Z " />
<glyph glyph-name="ecaron" unicode="&#x11b;" horiz-adv-x="541" d="M324 532 L446 707 L336 707 L276 623 L216 707 L107 707 L224 532 L324 532 Z M506 229 C506 367 416 469 277 469 C136 469 37 364 37 230 C37 95 144 -9 290 -9 C395 -9 452 29 480 54 L426 148 C406 132 371 101 304 101 C232 101 181 141 166 194 L504 194 C504 194 506 212 506 229 L506 229 Z M282 365 C334 365 375 330 381 278 L167 278 C182 335 225 365 282 365 L282 365 Z " />
<glyph glyph-name="Gbreve" unicode="&#x11e;" horiz-adv-x="737" d="M408 765 C506 765 575 824 575 917 L474 917 C474 879 448 854 408 854 C370 854 345 879 345 917 L244 917 C244 824 311 765 408 765 L408 765 Z M556 350 L556 142 C523 126 479 115 426 115 C293 115 185 211 185 351 C185 491 288 583 427 583 C524 583 583 547 601 535 L662 645 C636 662 562 712 421 712 C199 712 42 554 42 351 C42 148 199 -9 418 -9 C565 -9 648 44 686 73 L686 350 L556 350 Z " />
<glyph glyph-name="gbreve" unicode="&#x11f;" horiz-adv-x="590" d="M292 534 C389 534 458 597 458 698 L358 698 C358 651 332 621 292 621 C254 621 228 651 228 698 L128 698 C128 597 196 534 292 534 L292 534 Z M422 458 L418 401 C382 440 330 469 261 469 C134 469 37 366 37 230 C37 94 131 -9 258 -9 C317 -9 363 15 397 49 L397 13 C397 -47 345 -92 267 -92 C207 -92 152 -72 113 -50 L58 -143 C106 -179 172 -204 276 -204 C438 -204 528 -104 528 30 L528 458 L422 458 Z M287 110 C220 110 169 162 169 230 C169 299 220 350 287 350 C359 350 405 300 405 230 C405 161 359 110 287 110 L287 110 Z " />
<glyph glyph-name="Gdotaccent" unicode="&#x120;" horiz-adv-x="737" d="M410 760 C455 760 491 794 490 840 C490 886 454 920 409 920 C364 920 328 886 329 840 C329 794 365 760 410 760 L410 760 Z M556 350 L556 142 C523 126 479 115 426 115 C293 115 185 211 185 351 C185 491 288 583 427 583 C524 583 583 547 601 535 L662 645 C636 662 562 712 421 712 C199 712 42 554 42 351 C42 148 199 -9 418 -9 C565 -9 648 44 686 73 L686 350 L556 350 Z " />
<glyph glyph-name="gdotaccent" unicode="&#x121;" horiz-adv-x="590" d="M292 545 C335 545 370 576 370 622 C369 666 335 698 292 698 C249 698 214 666 215 621 C216 577 249 545 292 545 L292 545 Z M422 458 L418 401 C382 440 330 469 261 469 C134 469 37 366 37 230 C37 94 131 -9 258 -9 C317 -9 363 15 397 49 L397 13 C397 -47 345 -92 267 -92 C207 -92 152 -72 113 -50 L58 -143 C106 -179 172 -204 276 -204 C438 -204 528 -104 528 30 L528 458 L422 458 Z M287 110 C220 110 169 162 169 230 C169 299 220 350 287 350 C359 350 405 300 405 230 C405 161 359 110 287 110 L287 110 Z " />
<glyph glyph-name="Gcommaaccent" unicode="&#x122;" horiz-adv-x="737" d="M556 350 L556 142 C523 126 479 115 426 115 C293 115 185 211 185 351 C185 491 288 583 427 583 C524 583 583 547 601 535 L662 645 C636 662 562 712 421 712 C199 712 42 554 42 351 C42 148 199 -9 418 -9 C565 -9 648 44 686 73 L686 350 L556 350 Z M422 -33 C375 -33 344 -63 345 -104 C345 -144 372 -167 400 -167 C404 -167 409 -167 411 -166 C411 -184 393 -211 364 -230 L399 -269 C460 -240 500 -178 499 -113 C499 -65 469 -33 422 -33 L422 -33 Z " />
<glyph glyph-name="gcommaaccent" unicode="&#x123;" horiz-adv-x="590" d="M294 509 C341 509 372 539 371 581 C371 620 342 642 314 642 C309 642 305 642 302 641 C302 663 320 689 347 712 L311 752 C254 721 214 656 215 588 C216 541 247 509 294 509 L294 509 Z M422 458 L418 401 C382 440 330 469 261 469 C134 469 37 366 37 230 C37 94 131 -9 258 -9 C317 -9 363 15 397 49 L397 13 C397 -47 345 -92 267 -92 C207 -92 152 -72 113 -50 L58 -143 C106 -179 172 -204 276 -204 C438 -204 528 -104 528 30 L528 458 L422 458 Z M287 110 C220 110 169 162 169 230 C169 299 220 350 287 350 C359 350 405 300 405 230 C405 161 359 110 287 110 L287 110 Z " />
<glyph glyph-name="Hbar" unicode="&#x126;" horiz-adv-x="806" d="M807 606 L721 606 L721 703 L583 703 L583 606 L223 606 L223 703 L85 703 L85 606 L12 606 L12 509 L85 509 L85 0 L223 0 L223 291 L583 291 L583 0 L721 0 L721 509 L807 509 L807 606 Z M583 413 L223 413 L223 509 L583 509 L583 413 Z " />
<glyph glyph-name="hbar" unicode="&#x127;" horiz-adv-x="588" d="M325 469 C265 469 221 448 193 419 L193 545 L335 545 L335 634 L193 634 L193 714 L62 714 L62 634 L4 634 L4 545 L62 545 L62 0 L193 0 L193 240 C193 301 233 351 299 351 C359 351 401 305 401 236 L401 0 L532 0 L532 254 C532 383 447 469 325 469 L325 469 Z " />
<glyph glyph-name="Itilde" unicode="&#x128;" horiz-adv-x="308" d="M215 761 C298 761 333 845 334 854 L269 915 C269 913 254 864 216 864 C174 864 147 913 93 913 C9 913 -24 830 -26 829 L40 767 C40 769 52 809 92 809 C135 809 157 761 215 761 L215 761 Z M85 0 L223 0 L223 703 L85 703 L85 0 Z " />
<glyph glyph-name="itilde" unicode="&#x129;" horiz-adv-x="257" d="M188 540 C260 540 298 618 302 635 L235 695 C233 689 219 648 183 648 C144 648 121 697 59 697 C-14 697 -49 609 -49 609 L18 547 C21 554 32 588 72 588 C110 588 130 540 188 540 L188 540 Z M63 0 L194 0 L194 460 L63 460 L63 0 Z " />
<glyph glyph-name="Imacron" unicode="&#x12a;" horiz-adv-x="308" d="M-13 771 L321 771 L321 873 L-13 873 L-13 771 Z M85 0 L223 0 L223 703 L85 703 L85 0 Z " />
<glyph glyph-name="imacron" unicode="&#x12b;" horiz-adv-x="257" d="M-2 554 L256 554 L256 655 L-2 655 L-2 554 Z M63 0 L194 0 L194 460 L63 460 L63 0 Z " />
<glyph glyph-name="Iogonek" unicode="&#x12e;" horiz-adv-x="308" d="M216 -134 C208 -140 200 -146 184 -146 C158 -146 140 -131 140 -101 C140 -41 215 0 215 0 L223 0 L223 703 L85 703 L85 0 L112 0 C78 -27 40 -70 40 -129 C40 -194 90 -235 153 -235 C197 -235 226 -223 250 -205 L216 -134 Z " />
<glyph glyph-name="iogonek" unicode="&#x12f;" horiz-adv-x="257" d="M127 545 C170 545 205 576 205 622 C204 666 170 698 127 698 C84 698 49 666 50 621 C51 577 84 545 127 545 L127 545 Z M194 -138 C186 -144 177 -150 160 -150 C135 -150 116 -136 116 -104 C116 -43 194 0 194 0 L194 460 L63 460 L63 0 L87 0 C54 -28 19 -72 19 -131 C19 -197 68 -237 134 -237 C177 -237 205 -224 228 -206 L194 -138 Z " />
<glyph glyph-name="Idotaccent" unicode="&#x130;" horiz-adv-x="308" d="M155 760 C200 760 236 794 235 840 C235 886 199 920 154 920 C109 920 73 886 74 840 C74 794 110 760 155 760 L155 760 Z M85 0 L223 0 L223 703 L85 703 L85 0 Z " />
<glyph glyph-name="dotlessi" unicode="&#x131;" horiz-adv-x="257" d="M63 0 L194 0 L194 460 L63 460 L63 0 Z " />
<glyph glyph-name="IJ" unicode="&#x132;" horiz-adv-x="796" d="M85 0 L223 0 L223 703 L85 703 L85 0 Z M472 -9 C626 -9 718 88 718 244 L718 703 L579 703 L579 248 C579 171 536 126 461 126 C421 126 382 135 366 146 L314 30 C323 24 372 -9 472 -9 L472 -9 Z " />
<glyph glyph-name="ij" unicode="&#x133;" horiz-adv-x="520" d="M126 539 C175 539 213 573 213 622 C213 671 175 705 126 705 C78 704 41 671 41 622 C41 573 78 539 126 539 L126 539 Z M389 539 C438 539 476 573 476 622 C476 671 438 705 389 705 C341 704 304 671 304 622 C304 573 341 539 389 539 L389 539 Z M63 0 L194 0 L194 460 L63 460 L63 0 Z M271 -204 C385 -204 457 -124 457 0 L457 460 L326 460 L326 -2 C326 -61 293 -85 255 -85 C234 -85 223 -82 214 -77 L180 -187 C196 -195 222 -204 271 -204 L271 -204 Z " />
<glyph glyph-name="Kcommaaccent" unicode="&#x136;" horiz-adv-x="664" d="M344 357 L670 703 L506 703 L223 399 L223 703 L85 703 L85 0 L223 0 L223 294 L509 0 L689 0 L344 357 Z M351 -33 C304 -33 273 -63 274 -104 C274 -144 301 -167 329 -167 C333 -167 338 -167 340 -166 C340 -184 322 -211 293 -230 L328 -269 C389 -240 429 -178 428 -113 C428 -65 398 -33 351 -33 L351 -33 Z " />
<glyph glyph-name="kcommaaccent" unicode="&#x137;" horiz-adv-x="532" d="M316 242 L525 460 L360 460 L193 276 L193 714 L62 714 L62 0 L193 0 L193 190 L370 0 L541 0 L316 242 Z M275 -49 C228 -49 197 -79 198 -121 C198 -160 227 -182 255 -182 C260 -182 264 -182 267 -181 C267 -203 249 -229 222 -252 L258 -292 C315 -261 355 -196 354 -128 C353 -81 322 -49 275 -49 L275 -49 Z " />
<glyph glyph-name="kgreenlandic" unicode="&#x138;" horiz-adv-x="532" d="M537 0 L312 243 L525 460 L360 460 L193 279 L193 460 L62 460 L62 0 L193 0 L193 192 L370 0 L537 0 Z " />
<glyph glyph-name="Lacute" unicode="&#x139;" horiz-adv-x="572" d="M277 942 L47 834 L77 753 L322 823 L277 942 Z M223 121 L223 703 L85 703 L85 0 L563 0 L563 121 L223 121 Z " />
<glyph glyph-name="lacute" unicode="&#x13a;" horiz-adv-x="257" d="M32 764 L277 834 L232 953 L2 845 L32 764 Z M63 0 L194 0 L194 714 L63 714 L63 0 Z " />
<glyph glyph-name="Lcommaaccent" unicode="&#x13b;" horiz-adv-x="572" d="M223 121 L223 703 L85 703 L85 0 L563 0 L563 121 L223 121 Z M315 -33 C268 -33 237 -63 238 -104 C238 -144 265 -167 293 -167 C297 -167 302 -167 304 -166 C304 -184 286 -211 257 -230 L292 -269 C353 -240 393 -178 392 -113 C392 -65 362 -33 315 -33 L315 -33 Z " />
<glyph glyph-name="lcommaaccent" unicode="&#x13c;" horiz-adv-x="257" d="M63 0 L194 0 L194 714 L63 714 L63 0 Z M107 -292 C164 -261 204 -196 203 -128 C202 -81 171 -49 124 -49 C77 -49 46 -79 47 -121 C47 -160 76 -182 104 -182 C109 -182 113 -182 116 -181 C116 -203 98 -229 71 -252 L107 -292 Z " />
<glyph glyph-name="Lcaron" unicode="&#x13d;" horiz-adv-x="572" d="M223 703 L85 703 L85 0 L563 0 L563 121 L223 121 L223 703 Z M467 556 C472 556 477 557 480 558 C480 534 454 501 421 477 L457 435 C526 469 571 543 570 619 C570 670 537 703 489 703 C438 703 404 671 405 624 C406 583 431 556 467 556 L467 556 Z " />
<glyph glyph-name="lcaron" unicode="&#x13e;" horiz-adv-x="326" d="M63 0 L194 0 L194 714 L63 714 L63 0 Z M283 446 C351 480 397 554 396 629 C395 681 363 714 314 714 C263 714 230 682 230 634 C231 594 257 567 293 567 C297 567 302 567 305 568 C305 545 280 512 246 487 L283 446 Z " />
<glyph glyph-name="Ldot" unicode="&#x13f;" horiz-adv-x="572" d="M223 121 L223 703 L85 703 L85 0 L563 0 L563 121 L223 121 Z M413 311 C460 311 495 348 495 393 C495 438 460 474 413 474 C367 474 331 438 331 393 C331 348 367 311 413 311 L413 311 Z " />
<glyph glyph-name="ldot" unicode="&#x140;" horiz-adv-x="385" d="M63 0 L194 0 L194 714 L63 714 L63 0 Z M323 264 C369 264 404 301 404 346 C404 392 369 428 323 428 C275 428 240 392 240 346 C240 301 275 264 323 264 L323 264 Z " />
<glyph glyph-name="Lslash" unicode="&#x141;" horiz-adv-x="572" d="M223 121 L223 346 L344 416 L293 502 L223 462 L223 703 L85 703 L85 382 L-27 318 L24 232 L85 267 L85 0 L563 0 L563 121 L223 121 Z " />
<glyph glyph-name="lslash" unicode="&#x142;" horiz-adv-x="421" d="M421 408 L375 486 L281 433 L281 714 L150 714 L150 360 L13 283 L59 205 L150 256 L150 0 L281 0 L281 329 L421 408 Z " />
<glyph glyph-name="Nacute" unicode="&#x143;" horiz-adv-x="803" d="M537 823 L492 942 L262 834 L292 753 L537 823 Z M582 703 L582 241 L164 710 L86 710 L86 0 L221 0 L221 462 L640 -8 L718 -8 L718 703 L582 703 Z " />
<glyph glyph-name="nacute" unicode="&#x144;" horiz-adv-x="588" d="M429 618 L368 723 L174 592 L217 518 L429 618 Z M330 469 C246 469 188 430 161 382 L156 460 L62 460 L62 0 L193 0 L193 240 C193 301 234 351 300 351 C360 351 401 306 401 236 L401 0 L532 0 L532 254 C532 385 453 469 330 469 L330 469 Z " />
<glyph glyph-name="Ncommaaccent" unicode="&#x145;" horiz-adv-x="803" d="M582 703 L582 241 L164 710 L86 710 L86 0 L221 0 L221 462 L640 -8 L718 -8 L718 703 L582 703 Z M420 -33 C373 -33 342 -63 343 -104 C343 -144 370 -167 398 -167 C402 -167 407 -167 409 -166 C409 -184 391 -211 362 -230 L397 -269 C458 -240 498 -178 497 -113 C497 -65 467 -33 420 -33 L420 -33 Z " />
<glyph glyph-name="ncommaaccent" unicode="&#x146;" horiz-adv-x="588" d="M330 469 C246 469 188 430 161 382 L156 460 L62 460 L62 0 L193 0 L193 240 C193 301 234 351 300 351 C360 351 401 306 401 236 L401 0 L532 0 L532 254 C532 385 453 469 330 469 L330 469 Z M294 -49 C247 -49 216 -79 217 -121 C217 -160 246 -182 274 -182 C279 -182 283 -182 286 -181 C286 -203 268 -229 241 -252 L277 -292 C334 -261 374 -196 373 -128 C372 -81 341 -49 294 -49 L294 -49 Z " />
<glyph glyph-name="Ncaron" unicode="&#x147;" horiz-adv-x="803" d="M444 760 L580 923 L456 923 L397 855 L337 923 L213 923 L344 760 L444 760 Z M582 703 L582 241 L164 710 L86 710 L86 0 L221 0 L221 462 L640 -8 L718 -8 L718 703 L582 703 Z " />
<glyph glyph-name="ncaron" unicode="&#x148;" horiz-adv-x="588" d="M347 532 L469 707 L359 707 L299 623 L239 707 L130 707 L247 532 L347 532 Z M330 469 C246 469 188 430 161 382 L156 460 L62 460 L62 0 L193 0 L193 240 C193 301 234 351 300 351 C360 351 401 306 401 236 L401 0 L532 0 L532 254 C532 385 453 469 330 469 L330 469 Z " />
<glyph glyph-name="napostrophe" unicode="&#x149;" horiz-adv-x="628" d="M133 647 C133 698 100 731 52 731 C1 731 -33 699 -32 652 C-31 611 -6 584 30 584 C35 584 40 585 43 586 C43 562 17 529 -16 505 L20 463 C89 497 134 571 133 647 L133 647 Z M370 469 C286 469 228 430 201 382 L196 460 L102 460 L102 0 L233 0 L233 240 C233 301 274 351 340 351 C400 351 441 306 441 236 L441 0 L572 0 L572 254 C572 385 493 469 370 469 L370 469 Z " />
<glyph glyph-name="Eng" unicode="&#x14a;" horiz-adv-x="805" d="M582 703 L582 243 L581 243 L581 242 L164 710 L86 710 L86 0 L221 0 L221 462 L581 58 L581 53 C581 -35 546 -69 476 -69 C441 -69 399 -53 390 -49 L338 -165 C346 -171 392 -204 488 -204 C633 -204 718 -119 718 -8 L718 703 L582 703 Z " />
<glyph glyph-name="eng" unicode="&#x14b;" horiz-adv-x="588" d="M330 469 C246 469 188 430 161 382 L156 460 L62 460 L62 0 L193 0 L193 240 C193 301 234 351 300 351 C360 351 401 306 401 236 L401 -2 C401 -55 370 -86 329 -86 C315 -86 302 -83 289 -77 L238 -173 C260 -185 297 -204 346 -204 C461 -204 532 -126 532 -11 L532 254 C532 385 453 469 330 469 L330 469 Z " />
<glyph glyph-name="Omacron" unicode="&#x14c;" horiz-adv-x="825" d="M245 771 L579 771 L579 873 L245 873 L245 771 Z M414 -9 C627 -9 782 144 782 350 C782 558 627 712 414 712 C199 712 42 554 42 350 C42 147 199 -9 414 -9 L414 -9 Z M414 118 C281 118 183 218 183 350 C183 483 281 584 414 584 C544 584 641 484 641 350 C641 217 544 118 414 118 L414 118 Z " />
<glyph glyph-name="omacron" unicode="&#x14d;" horiz-adv-x="570" d="M130 554 L439 554 L439 655 L130 655 L130 554 Z M285 -9 C423 -9 534 94 534 230 C534 366 423 469 285 469 C147 469 36 366 36 230 C36 94 147 -9 285 -9 L285 -9 Z M285 110 C219 110 168 163 168 230 C168 296 219 350 285 350 C352 350 402 296 402 230 C402 163 352 110 285 110 L285 110 Z " />
<glyph glyph-name="Ohungarumlaut" unicode="&#x150;" horiz-adv-x="825" d="M269 741 L404 904 L306 972 L200 793 L269 741 Z M497 741 L633 904 L535 972 L429 793 L497 741 Z M414 -9 C627 -9 782 144 782 350 C782 558 627 712 414 712 C199 712 42 554 42 350 C42 147 199 -9 414 -9 L414 -9 Z M414 118 C281 118 183 218 183 350 C183 483 281 584 414 584 C544 584 641 484 641 350 C641 217 544 118 414 118 L414 118 Z " />
<glyph glyph-name="ohungarumlaut" unicode="&#x151;" horiz-adv-x="570" d="M188 505 L295 686 L191 734 L118 538 L188 505 Z M370 505 L477 686 L373 734 L301 538 L370 505 Z M285 -9 C423 -9 534 94 534 230 C534 366 423 469 285 469 C147 469 36 366 36 230 C36 94 147 -9 285 -9 L285 -9 Z M285 110 C219 110 168 163 168 230 C168 296 219 350 285 350 C352 350 402 296 402 230 C402 163 352 110 285 110 L285 110 Z " />
<glyph glyph-name="OE" unicode="&#x152;" horiz-adv-x="1184" d="M784 121 L784 294 L1087 294 L1087 416 L784 416 L784 581 L1128 581 L1128 703 L646 703 L646 637 C584 684 504 712 414 712 C199 712 42 554 42 350 C42 147 199 -9 414 -9 C504 -9 584 18 646 66 L646 0 L1131 0 L1131 121 L784 121 Z M414 118 C281 118 183 218 183 350 C183 483 281 584 414 584 C544 584 641 484 641 350 C641 217 544 118 414 118 L414 118 Z " />
<glyph glyph-name="oe" unicode="&#x153;" horiz-adv-x="909" d="M874 229 C874 367 784 469 645 469 C572 469 510 441 467 395 C422 441 357 469 285 469 C147 469 36 366 36 230 C36 94 147 -9 285 -9 C358 -9 424 20 469 67 C515 20 581 -9 658 -9 C763 -9 820 29 848 54 L794 148 C774 132 739 101 672 101 C600 101 549 141 534 194 L872 194 C872 194 874 212 874 229 L874 229 Z M650 365 C702 365 743 330 749 278 L535 278 C550 335 593 365 650 365 L650 365 Z M285 110 C219 110 168 163 168 230 C168 296 219 350 285 350 C352 350 402 296 402 230 C402 163 352 110 285 110 L285 110 Z " />
<glyph glyph-name="Racute" unicode="&#x154;" horiz-adv-x="669" d="M469 823 L424 942 L194 834 L224 753 L469 823 Z M644 0 L483 232 C570 273 621 349 621 449 C621 606 507 703 336 703 L85 703 L85 0 L223 0 L223 201 L327 201 L344 201 L481 0 L644 0 Z M223 582 L325 582 C416 582 478 533 478 449 C478 372 417 322 324 322 L223 322 L223 582 Z " />
<glyph glyph-name="racute" unicode="&#x155;" horiz-adv-x="382" d="M345 618 L284 723 L90 592 L133 518 L345 618 Z M328 469 C249 469 192 426 176 370 L171 460 L62 460 L62 0 L193 0 L193 231 C193 296 238 344 311 344 C332 344 344 340 357 335 L368 465 C356 468 342 469 328 469 L328 469 Z " />
<glyph glyph-name="Rcommaaccent" unicode="&#x156;" horiz-adv-x="669" d="M483 232 C570 273 621 349 621 449 C621 606 507 703 336 703 L85 703 L85 0 L223 0 L223 201 L327 201 L344 201 L481 0 L644 0 L483 232 Z M223 582 L325 582 C416 582 478 533 478 449 C478 372 417 322 324 322 L223 322 L223 582 Z M347 -33 C300 -33 269 -63 270 -104 C270 -144 297 -167 325 -167 C329 -167 334 -167 336 -166 C336 -184 318 -211 289 -230 L324 -269 C385 -240 425 -178 424 -113 C424 -65 394 -33 347 -33 L347 -33 Z " />
<glyph glyph-name="rcommaaccent" unicode="&#x157;" horiz-adv-x="382" d="M328 469 C249 469 192 426 176 370 L171 460 L62 460 L62 0 L193 0 L193 231 C193 296 238 344 311 344 C332 344 344 340 357 335 L368 465 C356 468 342 469 328 469 L328 469 Z M125 -49 C78 -49 47 -79 48 -121 C48 -160 77 -182 105 -182 C110 -182 114 -182 117 -181 C117 -203 99 -229 72 -252 L108 -292 C165 -261 205 -196 204 -128 C203 -81 172 -49 125 -49 L125 -49 Z " />
<glyph glyph-name="Rcaron" unicode="&#x158;" horiz-adv-x="669" d="M376 760 L512 923 L388 923 L329 855 L269 923 L145 923 L276 760 L376 760 Z M644 0 L483 232 C570 273 621 349 621 449 C621 606 507 703 336 703 L85 703 L85 0 L223 0 L223 201 L327 201 L344 201 L481 0 L644 0 Z M223 582 L325 582 C416 582 478 533 478 449 C478 372 417 322 324 322 L223 322 L223 582 Z " />
<glyph glyph-name="rcaron" unicode="&#x159;" horiz-adv-x="382" d="M263 532 L385 707 L275 707 L215 623 L155 707 L46 707 L163 532 L263 532 Z M176 370 L171 460 L62 460 L62 0 L193 0 L193 231 C193 296 238 344 311 344 C332 344 344 340 357 335 L368 465 C356 468 342 469 328 469 C249 469 192 426 176 370 L176 370 Z " />
<glyph glyph-name="Sacute" unicode="&#x15a;" horiz-adv-x="592" d="M207 753 L452 823 L407 942 L177 834 L207 753 Z M299 -9 C449 -9 548 73 548 204 C548 339 456 385 337 420 C240 449 194 465 194 516 C194 568 242 592 306 592 C377 592 431 571 479 536 L542 640 C487 683 410 712 307 712 C156 712 54 631 54 507 C54 384 147 338 266 305 C371 276 411 251 411 195 C411 138 364 111 301 111 C227 111 157 135 94 186 L25 76 C95 22 182 -9 299 -9 L299 -9 Z " />
<glyph glyph-name="sacute" unicode="&#x15b;" horiz-adv-x="472" d="M158 518 L370 618 L309 723 L115 592 L158 518 Z M227 -9 C361 -9 432 52 432 140 C432 237 353 265 278 283 C209 299 185 307 185 330 C185 353 206 364 239 364 C290 364 339 346 380 320 L432 417 C391 445 321 469 242 469 C126 469 50 412 50 324 C50 233 137 200 215 181 C276 167 298 156 298 132 C298 108 278 96 240 96 C177 96 119 120 84 146 L30 49 C78 16 147 -9 227 -9 L227 -9 Z " />
<glyph glyph-name="Scedilla" unicode="&#x15e;" horiz-adv-x="592" d="M548 204 C548 339 456 385 337 420 C240 449 194 465 194 516 C194 568 242 592 306 592 C377 592 431 571 479 536 L542 640 C487 683 410 712 307 712 C156 712 54 631 54 507 C54 384 147 338 266 305 C371 276 411 251 411 195 C411 138 364 111 301 111 C227 111 157 135 94 186 L25 76 C83 31 154 2 243 -6 L218 -77 L230 -92 C297 -81 327 -106 324 -135 C321 -157 300 -173 266 -170 C243 -169 220 -159 199 -146 L169 -205 C176 -210 218 -242 284 -242 C360 -242 413 -198 413 -131 C413 -76 371 -39 313 -36 L324 -8 C460 0 548 80 548 204 L548 204 Z " />
<glyph glyph-name="scedilla" unicode="&#x15f;" horiz-adv-x="472" d="M278 283 C209 299 185 307 185 330 C185 353 206 364 239 364 C290 364 339 346 380 320 L432 417 C391 445 321 469 242 469 C126 469 50 412 50 324 C50 233 137 200 215 181 C276 167 298 156 298 132 C298 108 278 96 240 96 C177 96 119 120 84 146 L30 49 C71 21 127 -2 193 -7 L167 -78 L180 -93 C191 -91 202 -91 210 -91 C256 -91 275 -109 275 -132 C275 -156 256 -171 222 -171 C193 -171 171 -159 150 -146 L120 -206 C120 -206 166 -243 235 -243 C311 -243 364 -203 364 -136 C364 -78 322 -38 255 -37 L267 -7 C375 4 432 61 432 140 C432 237 353 265 278 283 L278 283 Z " />
<glyph glyph-name="Scaron" unicode="&#x160;" horiz-adv-x="592" d="M359 760 L495 923 L371 923 L312 855 L252 923 L128 923 L259 760 L359 760 Z M337 420 C240 449 194 465 194 516 C194 568 242 592 306 592 C377 592 431 571 479 536 L542 640 C487 683 410 712 307 712 C156 712 54 631 54 507 C54 384 147 338 266 305 C371 276 411 251 411 195 C411 138 364 111 301 111 C227 111 157 135 94 186 L25 76 C95 22 182 -9 299 -9 C449 -9 548 73 548 204 C548 339 456 385 337 420 L337 420 Z " />
<glyph glyph-name="scaron" unicode="&#x161;" horiz-adv-x="472" d="M288 532 L410 707 L300 707 L240 623 L180 707 L71 707 L188 532 L288 532 Z M278 283 C209 299 185 307 185 330 C185 353 206 364 239 364 C290 364 339 346 380 320 L432 417 C391 445 321 469 242 469 C126 469 50 412 50 324 C50 233 137 200 215 181 C276 167 298 156 298 132 C298 108 278 96 240 96 C177 96 119 120 84 146 L30 49 C78 16 147 -9 227 -9 C361 -9 432 52 432 140 C432 237 353 265 278 283 L278 283 Z " />
<glyph glyph-name="uni0162" unicode="&#x162;" horiz-adv-x="626" d="M383 0 L383 581 L616 581 L616 703 L11 703 L11 581 L245 581 L245 0 L275 0 L247 -77 L259 -92 C326 -81 356 -106 353 -135 C350 -157 329 -173 295 -170 C272 -169 249 -159 228 -146 L198 -205 C205 -210 247 -242 313 -242 C389 -242 442 -198 442 -131 C442 -76 400 -39 342 -36 L356 0 L383 0 Z " />
<glyph glyph-name="uni0163" unicode="&#x163;" horiz-adv-x="447" d="M296 -39 L308 -9 C384 -5 425 25 442 37 L397 134 C385 127 360 109 321 109 C274 109 240 129 240 183 L240 350 L411 350 L411 460 L240 460 L240 618 L113 618 L113 460 L16 460 L16 350 L109 350 L109 170 C109 75 156 15 236 -3 L208 -80 L221 -95 C232 -93 243 -93 251 -93 C297 -93 316 -111 316 -134 C316 -158 297 -173 263 -173 C234 -173 212 -161 191 -148 L161 -208 C161 -208 207 -245 276 -245 C352 -245 405 -205 405 -138 C405 -80 363 -40 296 -39 L296 -39 Z " />
<glyph glyph-name="Tcaron" unicode="&#x164;" horiz-adv-x="626" d="M361 760 L497 923 L373 923 L314 855 L254 923 L130 923 L261 760 L361 760 Z M616 703 L11 703 L11 581 L245 581 L245 0 L383 0 L383 581 L616 581 L616 703 Z " />
<glyph glyph-name="tcaron" unicode="&#x165;" horiz-adv-x="447" d="M357 481 C426 515 472 589 471 665 C470 716 437 749 389 749 C338 749 304 717 305 669 C306 629 331 602 367 602 C372 602 377 602 380 603 C380 580 354 547 321 522 L357 481 Z M291 -9 C378 -9 424 24 442 37 L397 134 C385 127 360 109 321 109 C274 109 240 129 240 183 L240 350 L411 350 L411 460 L240 460 L240 618 L113 618 L113 460 L16 460 L16 350 L109 350 L109 170 C109 55 178 -9 291 -9 L291 -9 Z " />
<glyph glyph-name="Tbar" unicode="&#x166;" horiz-adv-x="626" d="M616 581 L616 703 L11 703 L11 581 L245 581 L245 400 L133 400 L133 311 L245 311 L245 0 L383 0 L383 311 L493 311 L493 400 L383 400 L383 581 L616 581 Z " />
<glyph glyph-name="tbar" unicode="&#x167;" horiz-adv-x="447" d="M397 134 C385 127 360 109 321 109 C274 109 240 129 240 183 L240 209 L334 209 L334 287 L240 287 L240 350 L411 350 L411 460 L240 460 L240 618 L113 618 L113 460 L16 460 L16 350 L109 350 L109 287 L32 287 L32 209 L109 209 L109 170 C109 55 178 -9 291 -9 C378 -9 424 24 442 37 L397 134 Z " />
<glyph glyph-name="Utilde" unicode="&#x168;" horiz-adv-x="770" d="M455 761 C551 761 592 845 593 854 L518 915 C518 913 500 864 457 864 C408 864 376 913 314 913 C216 913 178 830 176 829 L252 767 C252 769 266 809 313 809 C363 809 388 761 455 761 L455 761 Z M385 -9 C571 -9 694 99 694 302 L694 703 L557 703 L557 291 C557 196 501 116 386 116 C270 116 214 196 214 291 L214 703 L76 703 L76 302 C76 99 199 -9 385 -9 L385 -9 Z " />
<glyph glyph-name="utilde" unicode="&#x169;" horiz-adv-x="580" d="M222 588 C265 588 287 540 352 540 C432 540 475 618 479 635 L404 695 C402 689 386 648 346 648 C303 648 277 697 208 697 C127 697 88 609 87 609 L162 547 C166 554 178 588 222 588 L222 588 Z M387 460 L387 228 C387 167 349 117 284 117 C227 117 187 163 187 232 L187 460 L56 460 L56 206 C56 77 144 -9 268 -9 C332 -9 382 20 409 60 L413 0 L518 0 L518 460 L387 460 Z " />
<glyph glyph-name="Umacron" unicode="&#x16a;" horiz-adv-x="770" d="M218 771 L552 771 L552 873 L218 873 L218 771 Z M385 -9 C571 -9 694 99 694 302 L694 703 L557 703 L557 291 C557 196 501 116 386 116 C270 116 214 196 214 291 L214 703 L76 703 L76 302 C76 99 199 -9 385 -9 L385 -9 Z " />
<glyph glyph-name="umacron" unicode="&#x16b;" horiz-adv-x="580" d="M439 655 L130 655 L130 554 L439 554 L439 655 Z M387 460 L387 228 C387 167 349 117 284 117 C227 117 187 163 187 232 L187 460 L56 460 L56 206 C56 77 144 -9 268 -9 C332 -9 382 20 409 60 L413 0 L518 0 L518 460 L387 460 Z " />
<glyph glyph-name="Uring" unicode="&#x16e;" horiz-adv-x="770" d="M385 739 C453 739 503 786 503 852 C503 918 453 965 385 965 C316 965 266 918 266 852 C266 786 316 739 385 739 L385 739 Z M385 808 C361 808 343 828 343 853 C343 880 361 897 385 897 C409 897 426 880 426 853 C426 828 409 808 385 808 L385 808 Z M385 -9 C571 -9 694 99 694 302 L694 703 L557 703 L557 291 C557 196 501 116 386 116 C270 116 214 196 214 291 L214 703 L76 703 L76 302 C76 99 199 -9 385 -9 L385 -9 Z " />
<glyph glyph-name="uring" unicode="&#x16f;" horiz-adv-x="580" d="M285 516 C354 516 403 563 403 629 C403 695 354 743 285 743 C215 743 165 695 165 629 C165 563 215 516 285 516 L285 516 Z M285 675 C309 675 327 658 327 630 C327 604 309 585 285 585 C260 585 242 604 242 630 C242 658 260 675 285 675 L285 675 Z M387 460 L387 228 C387 167 349 117 284 117 C227 117 187 163 187 232 L187 460 L56 460 L56 206 C56 77 144 -9 268 -9 C332 -9 382 20 409 60 L413 0 L518 0 L518 460 L387 460 Z " />
<glyph glyph-name="Uhungarumlaut" unicode="&#x170;" horiz-adv-x="770" d="M242 741 L377 904 L279 972 L173 793 L242 741 Z M470 741 L606 904 L508 972 L402 793 L470 741 Z M385 -9 C571 -9 694 99 694 302 L694 703 L557 703 L557 291 C557 196 501 116 386 116 C270 116 214 196 214 291 L214 703 L76 703 L76 302 C76 99 199 -9 385 -9 L385 -9 Z " />
<glyph glyph-name="uhungarumlaut" unicode="&#x171;" horiz-adv-x="580" d="M295 686 L191 734 L118 538 L188 505 L295 686 Z M477 686 L373 734 L301 538 L370 505 L477 686 Z M387 460 L387 228 C387 167 349 117 284 117 C227 117 187 163 187 232 L187 460 L56 460 L56 206 C56 77 144 -9 268 -9 C332 -9 382 20 409 60 L413 0 L518 0 L518 460 L387 460 Z " />
<glyph glyph-name="Uogonek" unicode="&#x172;" horiz-adv-x="770" d="M557 703 L557 291 C557 196 501 116 386 116 C270 116 214 196 214 291 L214 703 L76 703 L76 302 C76 109 188 1 359 -8 C328 -35 297 -75 297 -129 C297 -194 347 -235 410 -235 C454 -235 483 -223 507 -205 L473 -134 C465 -140 457 -146 441 -146 C415 -146 397 -131 397 -101 C397 -44 465 -4 472 0 C608 29 694 132 694 302 L694 703 L557 703 Z " />
<glyph glyph-name="uogonek" unicode="&#x173;" horiz-adv-x="580" d="M518 -138 C510 -144 501 -150 484 -150 C459 -150 440 -136 440 -104 C440 -43 518 0 518 0 L518 460 L387 460 L387 228 C387 167 349 117 284 117 C227 117 187 163 187 232 L187 460 L56 460 L56 206 C56 77 144 -9 268 -9 C332 -9 382 20 409 60 L413 1 C379 -27 343 -71 343 -131 C343 -197 392 -237 458 -237 C501 -237 529 -224 552 -206 L518 -138 Z " />
<glyph glyph-name="Wcircumflex" unicode="&#x174;" horiz-adv-x="960" d="M477 828 L536 760 L660 760 L529 923 L428 923 L293 760 L417 760 L477 828 Z M821 703 L755 451 L688 198 L611 442 L525 703 L433 703 L348 442 L275 195 L215 450 L148 703 L2 703 L218 0 L322 0 L477 493 L637 0 L741 0 L958 703 L821 703 Z " />
<glyph glyph-name="wcircumflex" unicode="&#x175;" horiz-adv-x="813" d="M408 615 L468 532 L577 532 L460 707 L359 707 L238 532 L348 532 L408 615 Z M663 460 L573 175 L455 469 L365 469 L253 182 L154 460 L10 460 L191 0 L285 0 L408 300 L532 0 L622 0 L803 460 L663 460 Z " />
<glyph glyph-name="Ycircumflex" unicode="&#x176;" horiz-adv-x="675" d="M344 828 L403 760 L527 760 L396 923 L295 923 L160 760 L284 760 L344 828 Z M667 703 L511 703 L343 410 L175 703 L10 703 L268 274 L268 0 L406 0 L406 274 L667 703 Z " />
<glyph glyph-name="ycircumflex" unicode="&#x177;" horiz-adv-x="533" d="M276 615 L336 532 L445 532 L328 707 L227 707 L106 532 L216 532 L276 615 Z M526 460 L391 460 L275 150 L157 460 L10 460 L206 1 L129 -195 L258 -195 L346 19 L526 460 Z " />
<glyph glyph-name="Ydieresis" unicode="&#x178;" horiz-adv-x="675" d="M225 769 C267 769 301 800 300 844 C299 888 267 919 225 919 C182 919 147 888 148 844 C149 800 182 769 225 769 L225 769 Z M462 766 C505 766 540 798 539 842 C539 886 505 917 462 917 C420 917 386 886 386 842 C386 798 420 766 462 766 L462 766 Z M667 703 L511 703 L343 410 L175 703 L10 703 L268 274 L268 0 L406 0 L406 274 L667 703 Z " />
<glyph glyph-name="Zacute" unicode="&#x179;" horiz-adv-x="643" d="M455 823 L410 942 L180 834 L210 753 L455 823 Z M210 122 L597 616 L597 703 L37 703 L37 581 L413 581 L32 86 L32 0 L605 0 L605 122 L210 122 Z " />
<glyph glyph-name="zacute" unicode="&#x17a;" horiz-adv-x="492" d="M370 618 L309 723 L115 592 L158 518 L370 618 Z M204 110 L448 363 L448 460 L46 460 L46 350 L281 350 L37 97 L37 0 L453 0 L453 110 L204 110 Z " />
<glyph glyph-name="Zdotaccent" unicode="&#x17b;" horiz-adv-x="643" d="M316 760 C361 760 397 794 396 840 C396 886 360 920 315 920 C270 920 234 886 235 840 C235 794 271 760 316 760 L316 760 Z M210 122 L597 616 L597 703 L37 703 L37 581 L413 581 L32 86 L32 0 L605 0 L605 122 L210 122 Z " />
<glyph glyph-name="zdotaccent" unicode="&#x17c;" horiz-adv-x="492" d="M240 545 C283 545 318 576 318 622 C317 666 283 698 240 698 C197 698 162 666 163 621 C164 577 197 545 240 545 L240 545 Z M204 110 L448 363 L448 460 L46 460 L46 350 L281 350 L37 97 L37 0 L453 0 L453 110 L204 110 Z " />
<glyph glyph-name="Zcaron" unicode="&#x17d;" horiz-adv-x="643" d="M362 760 L498 923 L374 923 L315 855 L255 923 L131 923 L262 760 L362 760 Z M210 122 L597 616 L597 703 L37 703 L37 581 L413 581 L32 86 L32 0 L605 0 L605 122 L210 122 Z " />
<glyph glyph-name="zcaron" unicode="&#x17e;" horiz-adv-x="492" d="M288 532 L410 707 L300 707 L240 623 L180 707 L71 707 L188 532 L288 532 Z M204 110 L448 363 L448 460 L46 460 L46 350 L281 350 L37 97 L37 0 L453 0 L453 110 L204 110 Z " />
<glyph glyph-name="uni01EA" unicode="&#x1ea;" horiz-adv-x="825" d="M498 -1 C666 34 782 172 782 350 C782 558 627 712 414 712 C199 712 42 554 42 350 C42 156 186 5 386 -8 C355 -35 324 -75 324 -129 C324 -194 374 -235 437 -235 C481 -235 510 -223 534 -205 L500 -134 C492 -140 484 -146 468 -146 C442 -146 424 -131 424 -101 C424 -46 488 -6 498 -1 L498 -1 Z M183 350 C183 483 281 584 414 584 C544 584 641 484 641 350 C641 217 544 118 414 118 C281 118 183 218 183 350 L183 350 Z " />
<glyph glyph-name="uni01EB" unicode="&#x1eb;" horiz-adv-x="570" d="M352 -1 C457 27 534 117 534 230 C534 366 423 469 285 469 C147 469 36 366 36 230 C36 109 124 14 240 -5 C209 -34 178 -76 178 -131 C178 -197 227 -237 293 -237 C336 -237 364 -224 387 -206 L353 -138 C345 -144 336 -150 319 -150 C294 -150 275 -136 275 -104 C275 -47 343 -6 352 -1 L352 -1 Z M168 230 C168 296 219 350 285 350 C352 350 402 296 402 230 C402 163 352 110 285 110 C219 110 168 163 168 230 L168 230 Z " />
<glyph glyph-name="AEacute" unicode="&#x1fc;" horiz-adv-x="921" d="M507 754 L752 824 L707 943 L477 835 L507 754 Z M-15 0 L128 0 L206 147 L423 147 L423 0 L869 0 L869 121 L562 121 L562 290 L825 292 L825 414 L562 412 L562 581 L869 581 L869 703 L357 703 L-15 0 Z M265 264 L423 573 L423 264 L265 264 Z " />
<glyph glyph-name="aeacute" unicode="&#x1fd;" horiz-adv-x="922" d="M591 618 L530 723 L336 592 L379 518 L591 618 Z M912 229 C912 374 822 469 692 469 C628 469 574 446 534 409 L527 460 L422 460 L415 410 C380 448 331 469 267 469 C133 469 37 366 37 230 C37 94 130 -9 257 -9 C324 -9 376 15 412 55 L422 0 L527 0 L536 50 C578 13 635 -9 706 -9 C803 -9 863 31 891 57 L826 142 C801 120 773 101 710 101 C638 101 587 141 572 194 L910 194 C910 194 912 212 912 229 L912 229 Z M685 365 C742 365 781 330 787 278 L573 278 C588 335 631 365 685 365 L685 365 Z M287 110 C218 110 169 162 169 230 C169 300 218 350 287 350 C359 350 405 300 405 230 C406 161 359 110 287 110 L287 110 Z " />
<glyph glyph-name="Oslashacute" unicode="&#x1fe;" horiz-adv-x="825" d="M545 822 L500 941 L270 833 L300 752 L545 822 Z M674 613 L727 683 L647 743 L592 671 C540 697 480 712 414 712 C199 712 42 554 42 350 C42 246 84 154 153 89 L99 17 L180 -43 L236 32 C288 6 348 -9 414 -9 C627 -9 782 144 782 350 C782 456 742 548 674 613 L674 613 Z M183 350 C183 483 281 584 414 584 C449 584 482 577 511 563 L236 198 C203 239 183 291 183 350 L183 350 Z M414 118 C379 118 346 125 316 138 L590 501 C622 461 641 409 641 350 C641 217 544 118 414 118 L414 118 Z " />
<glyph glyph-name="oslashacute" unicode="&#x1ff;" horiz-adv-x="570" d="M414 618 L353 723 L159 592 L202 518 L414 618 Z M469 393 L514 450 L445 505 L397 444 C364 460 325 469 285 469 C147 469 36 366 36 230 C36 166 61 109 102 67 L55 7 L124 -47 L173 16 C207 0 245 -9 285 -9 C423 -9 534 94 534 230 C534 294 509 351 469 393 L469 393 Z M168 230 C168 296 219 350 285 350 C297 350 309 348 320 345 L183 170 C173 188 168 208 168 230 L168 230 Z M285 110 C273 110 262 112 251 115 L387 289 C397 271 402 251 402 230 C402 163 352 110 285 110 L285 110 Z " />
<glyph glyph-name="Scommaaccent" unicode="&#x218;" horiz-adv-x="592" d="M299 -9 C449 -9 548 73 548 204 C548 339 456 385 337 420 C240 449 194 465 194 516 C194 568 242 592 306 592 C377 592 431 571 479 536 L542 640 C487 683 410 712 307 712 C156 712 54 631 54 507 C54 384 147 338 266 305 C371 276 411 251 411 195 C411 138 364 111 301 111 C227 111 157 135 94 186 L25 76 C95 22 182 -9 299 -9 L299 -9 Z M276 -166 C276 -184 258 -211 229 -230 L264 -269 C325 -240 365 -178 364 -113 C364 -65 334 -33 287 -33 C240 -33 209 -63 210 -104 C210 -144 237 -167 265 -167 C269 -167 274 -167 276 -166 L276 -166 Z " />
<glyph glyph-name="scommaaccent" unicode="&#x219;" horiz-adv-x="472" d="M227 -9 C361 -9 432 52 432 140 C432 237 353 265 278 283 C209 299 185 307 185 330 C185 353 206 364 239 364 C290 364 339 346 380 320 L432 417 C391 445 321 469 242 469 C126 469 50 412 50 324 C50 233 137 200 215 181 C276 167 298 156 298 132 C298 108 278 96 240 96 C177 96 119 120 84 146 L30 49 C78 16 147 -9 227 -9 L227 -9 Z M214 -292 C271 -261 311 -196 310 -128 C309 -81 278 -49 231 -49 C184 -49 153 -79 154 -121 C154 -160 183 -182 211 -182 C216 -182 220 -182 223 -181 C223 -203 205 -229 178 -252 L214 -292 Z " />
<glyph glyph-name="uni021A" unicode="&#x21a;" horiz-adv-x="626" d="M616 703 L11 703 L11 581 L245 581 L245 0 L383 0 L383 581 L616 581 L616 703 Z M316 -33 C269 -33 238 -63 239 -104 C239 -144 266 -167 294 -167 C298 -167 303 -167 305 -166 C305 -184 287 -211 258 -230 L293 -269 C354 -240 394 -178 393 -113 C393 -65 363 -33 316 -33 L316 -33 Z " />
<glyph glyph-name="uni021B" unicode="&#x21b;" horiz-adv-x="447" d="M291 -9 C378 -9 424 24 442 37 L397 134 C385 127 360 109 321 109 C274 109 240 129 240 183 L240 350 L411 350 L411 460 L240 460 L240 618 L113 618 L113 460 L16 460 L16 350 L109 350 L109 170 C109 55 178 -9 291 -9 L291 -9 Z M255 -294 C312 -263 352 -198 351 -130 C350 -83 319 -51 272 -51 C225 -51 194 -81 195 -123 C195 -162 224 -184 252 -184 C257 -184 261 -184 264 -183 C264 -205 246 -231 219 -254 L255 -294 Z " />
<glyph glyph-name="uni0237" unicode="&#x237;" horiz-adv-x="264" d="M15 -204 C129 -204 201 -124 201 0 L201 460 L70 460 L70 -2 C70 -61 37 -85 -1 -85 C-22 -85 -33 -82 -42 -77 L-76 -187 C-60 -195 -34 -204 15 -204 L15 -204 Z " />
<glyph glyph-name="circumflex" unicode="&#x2c6;" horiz-adv-x="417" d="M378 532 L261 707 L160 707 L39 532 L149 532 L209 615 L269 532 L378 532 Z " />
<glyph glyph-name="caron" unicode="&#x2c7;" horiz-adv-x="376" d="M247 707 L187 623 L127 707 L18 707 L135 532 L235 532 L357 707 L247 707 Z " />
<glyph glyph-name="breve" unicode="&#x2d8;" horiz-adv-x="368" d="M188 534 C285 534 354 597 354 698 L254 698 C254 651 228 621 188 621 C150 621 124 651 124 698 L24 698 C24 597 92 534 188 534 L188 534 Z " />
<glyph glyph-name="dotaccent" unicode="&#x2d9;" horiz-adv-x="161" d="M80 545 C123 545 158 576 158 622 C157 666 123 698 80 698 C37 698 2 666 3 621 C4 577 37 545 80 545 L80 545 Z " />
<glyph glyph-name="ring" unicode="&#x2da;" horiz-adv-x="258" d="M130 516 C199 516 248 563 248 629 C248 695 199 743 130 743 C60 743 10 695 10 629 C10 563 60 516 130 516 L130 516 Z M130 585 C105 585 87 604 87 630 C87 658 105 675 130 675 C154 675 172 658 172 630 C172 604 154 585 130 585 L130 585 Z " />
<glyph glyph-name="ogonek" unicode="&#x2db;" horiz-adv-x="231" d="M128 -237 C171 -237 199 -224 222 -206 L188 -138 C180 -144 171 -150 154 -150 C129 -150 110 -136 110 -104 C110 -43 188 0 188 0 L140 38 C130 34 13 -23 13 -131 C13 -197 62 -237 128 -237 L128 -237 Z " />
<glyph glyph-name="tilde" unicode="&#x2dc;" horiz-adv-x="443" d="M289 540 C369 540 412 618 416 635 L341 695 C339 689 323 648 283 648 C240 648 214 697 145 697 C64 697 25 609 24 609 L99 547 C103 554 115 588 159 588 C202 588 224 540 289 540 L289 540 Z " />
<glyph glyph-name="hungarumlaut" unicode="&#x2dd;" horiz-adv-x="378" d="M80 505 L187 686 L83 734 L10 538 L80 505 Z M262 505 L369 686 L265 734 L193 538 L262 505 Z " />
<glyph glyph-name="gravecomb" unicode="&#x300;" d="M-53 518 L-10 592 L-204 723 L-265 618 L-53 518 Z " />
<glyph glyph-name="acutecomb" unicode="&#x301;" d="M-223 518 L-11 618 L-72 723 L-266 592 L-223 518 Z " />
<glyph glyph-name="uni0302" unicode="&#x302;" d="M-39 532 L-156 707 L-257 707 L-378 532 L-268 532 L-208 615 L-148 532 L-39 532 Z " />
<glyph glyph-name="tildecomb" unicode="&#x303;" d="M-154 540 C-74 540 -31 618 -27 635 L-102 695 C-104 689 -120 648 -160 648 C-203 648 -229 697 -298 697 C-379 697 -418 609 -419 609 L-344 547 C-340 554 -328 588 -284 588 C-241 588 -219 540 -154 540 L-154 540 Z " />
<glyph glyph-name="uni0304" unicode="&#x304;" d="M-319 554 L-10 554 L-10 655 L-319 655 L-319 554 Z " />
<glyph glyph-name="uni0306" unicode="&#x306;" d="M-190 534 C-93 534 -24 597 -24 698 L-124 698 C-124 651 -150 621 -190 621 C-228 621 -254 651 -254 698 L-354 698 C-354 597 -286 534 -190 534 L-190 534 Z " />
<glyph glyph-name="uni0307" unicode="&#x307;" d="M-81 545 C-38 545 -3 576 -3 622 C-4 666 -38 698 -81 698 C-124 698 -159 666 -158 621 C-157 577 -124 545 -81 545 L-81 545 Z " />
<glyph glyph-name="uni0308" unicode="&#x308;" d="M-316 551 C-274 551 -239 583 -240 626 C-241 671 -274 702 -316 702 C-358 702 -393 671 -392 626 C-392 583 -358 551 -316 551 L-316 551 Z M-95 549 C-52 549 -17 580 -18 624 C-19 668 -52 700 -95 700 C-137 700 -172 668 -171 624 C-170 580 -137 549 -95 549 L-95 549 Z " />
<glyph glyph-name="uni030A" unicode="&#x30a;" d="M-128 516 C-59 516 -10 563 -10 629 C-10 695 -59 743 -128 743 C-198 743 -248 695 -248 629 C-248 563 -198 516 -128 516 L-128 516 Z M-128 585 C-153 585 -171 604 -171 630 C-171 658 -153 675 -128 675 C-104 675 -86 658 -86 630 C-86 604 -104 585 -128 585 L-128 585 Z " />
<glyph glyph-name="uni030B" unicode="&#x30b;" d="M-351 505 L-244 686 L-348 734 L-421 538 L-351 505 Z M-169 505 L-62 686 L-166 734 L-238 538 L-169 505 Z " />
<glyph glyph-name="uni030C" unicode="&#x30c;" d="M-129 707 L-189 623 L-249 707 L-358 707 L-241 532 L-141 532 L-19 707 L-129 707 Z " />
<glyph glyph-name="uni0326" unicode="&#x326;" d="M-110 -292 C-53 -261 -13 -196 -14 -128 C-15 -81 -46 -49 -93 -49 C-140 -49 -171 -79 -170 -121 C-170 -160 -141 -182 -113 -182 C-108 -182 -104 -182 -101 -181 C-101 -203 -119 -229 -146 -252 L-110 -292 Z " />
<glyph glyph-name="uni0327" unicode="&#x327;" d="M-138 -243 C-62 -243 -9 -203 -9 -136 C-9 -78 -51 -38 -118 -37 L-95 21 L-170 21 L-206 -78 L-193 -93 C-182 -91 -171 -91 -163 -91 C-117 -91 -98 -109 -98 -132 C-98 -156 -117 -171 -151 -171 C-180 -171 -202 -159 -223 -146 L-253 -206 C-253 -206 -207 -243 -138 -243 L-138 -243 Z " />
<glyph glyph-name="uni0328" unicode="&#x328;" d="M-133 -237 C-90 -237 -62 -224 -39 -206 L-73 -138 C-81 -144 -90 -150 -107 -150 C-132 -150 -151 -136 -151 -104 C-151 -43 -73 0 -73 0 L-121 38 C-131 34 -248 -23 -248 -131 C-248 -197 -199 -237 -133 -237 L-133 -237 Z " />
<glyph glyph-name="uni0335" unicode="&#x335;" d="M-380 227 L-20 227 L-20 316 L-380 316 L-380 227 Z " />
<glyph glyph-name="uni0336" unicode="&#x336;" d="M-790 270 L-10 270 L-10 367 L-790 367 L-790 270 Z " />
<glyph glyph-name="uni0337" unicode="&#x337;" d="M-378 155 L-16 358 L-62 436 L-424 232 L-378 155 Z " />
<glyph glyph-name="uni0338" unicode="&#x338;" d="M-418 -9 L-28 488 L-97 543 L-487 45 L-418 -9 Z " />
<glyph glyph-name="Wgrave" unicode="&#x1e80;" horiz-adv-x="960" d="M613 839 L378 939 L337 818 L585 757 L613 839 Z M821 703 L755 451 L688 198 L611 442 L525 703 L433 703 L348 442 L275 195 L215 450 L148 703 L2 703 L218 0 L322 0 L477 493 L637 0 L741 0 L958 703 L821 703 Z " />
<glyph glyph-name="wgrave" unicode="&#x1e81;" horiz-adv-x="813" d="M532 592 L338 723 L277 618 L489 518 L532 592 Z M663 460 L573 175 L455 469 L365 469 L253 182 L154 460 L10 460 L191 0 L285 0 L408 300 L532 0 L622 0 L803 460 L663 460 Z " />
<glyph glyph-name="Wacute" unicode="&#x1e82;" horiz-adv-x="960" d="M617 823 L572 942 L342 834 L372 753 L617 823 Z M821 703 L755 451 L688 198 L611 442 L525 703 L433 703 L348 442 L275 195 L215 450 L148 703 L2 703 L218 0 L322 0 L477 493 L637 0 L741 0 L958 703 L821 703 Z " />
<glyph glyph-name="wacute" unicode="&#x1e83;" horiz-adv-x="813" d="M537 618 L476 723 L282 592 L325 518 L537 618 Z M663 460 L573 175 L455 469 L365 469 L253 182 L154 460 L10 460 L191 0 L285 0 L408 300 L532 0 L622 0 L803 460 L663 460 Z " />
<glyph glyph-name="Wdieresis" unicode="&#x1e84;" horiz-adv-x="960" d="M358 769 C400 769 434 800 433 844 C432 888 400 919 358 919 C315 919 280 888 281 844 C282 800 315 769 358 769 L358 769 Z M595 766 C638 766 673 798 672 842 C672 886 638 917 595 917 C553 917 519 886 519 842 C519 798 553 766 595 766 L595 766 Z M821 703 L755 451 L688 198 L611 442 L525 703 L433 703 L348 442 L275 195 L215 450 L148 703 L2 703 L218 0 L322 0 L477 493 L637 0 L741 0 L958 703 L821 703 Z " />
<glyph glyph-name="wdieresis" unicode="&#x1e85;" horiz-adv-x="813" d="M297 551 C339 551 374 583 373 626 C372 671 339 702 297 702 C255 702 220 671 221 626 C221 583 255 551 297 551 L297 551 Z M518 549 C561 549 596 580 595 624 C594 668 561 700 518 700 C476 700 441 668 442 624 C443 580 476 549 518 549 L518 549 Z M663 460 L573 175 L455 469 L365 469 L253 182 L154 460 L10 460 L191 0 L285 0 L408 300 L532 0 L622 0 L803 460 L663 460 Z " />
<glyph glyph-name="uni1E9E" unicode="&#x1e9e;" horiz-adv-x="744" d="M510 431 L657 601 L657 703 L354 703 C155 703 79 599 79 456 L79 0 L217 0 L217 456 C217 533 268 583 354 583 L494 583 L366 432 L366 329 L454 329 C540 329 587 284 587 219 C587 153 539 109 466 109 C420 109 389 119 362 138 L312 32 C350 7 399 -9 475 -9 C617 -9 718 79 718 212 C718 340 635 422 510 431 L510 431 Z " />
<glyph glyph-name="Ygrave" unicode="&#x1ef2;" horiz-adv-x="675" d="M480 839 L245 939 L204 818 L452 757 L480 839 Z M667 703 L511 703 L343 410 L175 703 L10 703 L268 274 L268 0 L406 0 L406 274 L667 703 Z " />
<glyph glyph-name="ygrave" unicode="&#x1ef3;" horiz-adv-x="533" d="M400 592 L206 723 L145 618 L357 518 L400 592 Z M526 460 L391 460 L275 150 L157 460 L10 460 L206 1 L129 -195 L258 -195 L346 19 L526 460 Z " />
<glyph glyph-name="uni1EF8" unicode="&#x1ef8;" horiz-adv-x="675" d="M272 809 C322 809 347 761 414 761 C510 761 551 845 552 854 L477 915 C477 913 459 864 416 864 C367 864 335 913 273 913 C175 913 137 830 135 829 L211 767 C211 769 225 809 272 809 L272 809 Z M667 703 L511 703 L343 410 L175 703 L10 703 L268 274 L268 0 L406 0 L406 274 L667 703 Z " />
<glyph glyph-name="uni1EF9" unicode="&#x1ef9;" horiz-adv-x="533" d="M213 588 C256 588 278 540 343 540 C423 540 466 618 470 635 L395 695 C393 689 377 648 337 648 C294 648 268 697 199 697 C118 697 79 609 78 609 L153 547 C157 554 169 588 213 588 L213 588 Z M526 460 L391 460 L275 150 L157 460 L10 460 L206 1 L129 -195 L258 -195 L346 19 L526 460 Z " />
<glyph glyph-name="endash" unicode="&#x2013;" horiz-adv-x="529" d="M60 195 L468 195 L468 298 L60 298 L60 195 Z " />
<glyph glyph-name="emdash" unicode="&#x2014;" horiz-adv-x="964" d="M60 195 L896 195 L896 297 L60 297 L60 195 Z " />
<glyph glyph-name="quoteleft" unicode="&#x2018;" horiz-adv-x="250" d="M124 466 C174 466 208 498 207 546 C207 586 181 613 145 613 C140 613 135 613 133 612 C133 635 158 669 191 693 L154 735 C86 700 41 628 41 551 C42 500 75 466 124 466 L124 466 Z " />
<glyph glyph-name="quoteright" unicode="&#x2019;" horiz-adv-x="242" d="M94 472 C162 507 208 580 207 656 C206 707 174 741 125 741 C74 741 41 709 41 661 C42 621 68 594 104 594 C109 594 114 594 116 595 C116 572 91 538 58 514 L94 472 Z " />
<glyph glyph-name="quotesinglbase" unicode="&#x201a;" horiz-adv-x="259" d="M100 -159 C168 -124 214 -51 213 25 C212 76 180 110 131 110 C80 110 46 78 47 30 C48 -10 74 -37 110 -37 C115 -37 119 -37 122 -36 C122 -59 97 -93 63 -117 L100 -159 Z " />
<glyph glyph-name="quotedblleft" unicode="&#x201c;" horiz-adv-x="445" d="M124 466 C174 466 208 498 207 546 C207 586 181 613 145 613 C140 613 135 613 133 612 C133 635 158 669 191 693 L154 735 C86 700 41 628 41 551 C42 500 75 466 124 466 L124 466 Z M318 466 C369 466 403 498 402 546 C401 586 376 613 340 613 C335 613 330 613 327 612 C327 635 353 669 386 693 L349 735 C281 700 235 628 236 551 C237 500 269 466 318 466 L318 466 Z " />
<glyph glyph-name="quotedblright" unicode="&#x201d;" horiz-adv-x="436" d="M94 472 C162 507 208 580 207 656 C206 707 174 741 125 741 C74 741 41 709 41 661 C42 621 68 594 104 594 C109 594 114 594 116 595 C116 572 91 538 58 514 L94 472 Z M289 472 C357 507 403 580 402 656 C401 707 369 741 319 741 C269 741 235 709 236 661 C237 621 262 594 298 594 C303 594 308 594 311 595 C311 572 286 538 252 514 L289 472 Z " />
<glyph glyph-name="quotedblbase" unicode="&#x201e;" horiz-adv-x="455" d="M100 -159 C168 -124 214 -51 213 25 C212 76 180 110 131 110 C80 110 46 78 47 30 C48 -10 74 -37 110 -37 C115 -37 119 -37 122 -36 C122 -59 97 -93 63 -117 L100 -159 Z M295 -159 C363 -124 409 -51 408 25 C407 76 375 110 325 110 C275 110 241 78 242 30 C243 -10 268 -37 304 -37 C309 -37 314 -37 317 -36 C317 -59 291 -93 258 -117 L295 -159 Z " />
<glyph glyph-name="dagger" unicode="&#x2020;" horiz-adv-x="599" d="M546 520 L361 520 L361 729 L242 729 L242 520 L53 520 L53 400 L242 400 L241 0 L361 0 L361 400 L546 400 L546 520 Z " />
<glyph glyph-name="daggerdbl" unicode="&#x2021;" horiz-adv-x="599" d="M546 438 L546 559 L360 559 L360 729 L241 729 L241 559 L53 559 L53 438 L241 438 L240 279 L53 279 L53 159 L240 159 L240 0 L360 0 L360 159 L546 159 L546 279 L360 279 L360 438 L546 438 Z " />
<glyph glyph-name="bullet" unicode="&#x2022;" horiz-adv-x="403" d="M202 197 C275 197 334 256 334 331 C334 406 275 467 202 467 C129 467 69 406 69 331 C69 256 129 197 202 197 L202 197 Z " />
<glyph glyph-name="ellipsis" unicode="&#x2026;" horiz-adv-x="808" d="M130 -10 C176 -10 212 27 212 72 C212 117 176 154 130 154 C83 154 47 117 47 72 C47 27 83 -10 130 -10 L130 -10 Z M404 -10 C450 -10 486 27 486 72 C486 117 450 154 404 154 C357 154 322 117 322 72 C322 27 357 -10 404 -10 L404 -10 Z M679 -10 C725 -10 761 27 761 72 C761 117 725 154 679 154 C632 154 596 117 596 72 C596 27 632 -10 679 -10 L679 -10 Z " />
<glyph glyph-name="perthousand" unicode="&#x2030;" horiz-adv-x="1295" d="M265 -20 L702 707 L603 757 L167 26 L265 -20 Z M212 400 C320 400 393 472 393 579 C393 684 321 754 212 754 C106 754 32 684 32 579 C32 472 106 400 212 400 L212 400 Z M212 492 C164 492 129 526 129 579 C129 628 164 662 212 662 C262 662 297 628 297 579 C297 526 262 492 212 492 L212 492 Z M668 -13 C777 -13 850 57 850 163 C850 270 777 339 668 339 C560 339 488 270 488 163 C488 57 560 -13 668 -13 L668 -13 Z M1085 -14 C1193 -14 1266 57 1266 163 C1266 269 1193 339 1085 339 C976 339 903 269 903 163 C903 57 976 -14 1085 -14 L1085 -14 Z M668 77 C619 77 584 112 584 163 C584 213 619 248 668 248 C719 248 752 213 752 163 C752 112 719 77 668 77 L668 77 Z M1085 76 C1035 76 1000 111 1000 163 C1000 213 1035 247 1085 247 C1135 247 1169 213 1169 163 C1169 111 1135 76 1085 76 L1085 76 Z " />
<glyph glyph-name="guilsinglleft" unicode="&#x2039;" horiz-adv-x="311" d="M147 69 L267 69 L149 246 L267 423 L147 423 L34 246 L147 69 Z " />
<glyph glyph-name="guilsinglright" unicode="&#x203a;" horiz-adv-x="312" d="M45 69 L165 69 L278 246 L165 423 L45 423 L164 246 L45 69 Z " />
<glyph glyph-name="fraction" unicode="&#x2044;" horiz-adv-x="440" d="M93 -7 L432 664 L340 712 L1 36 L93 -7 Z " />
<glyph glyph-name="Euro" unicode="&#x20ac;" horiz-adv-x="757" d="M676 152 C668 147 602 111 508 111 C406 111 328 153 286 222 L530 222 L530 311 L254 311 C252 325 251 339 251 354 C251 364 251 373 252 382 L530 382 L530 471 L278 471 C319 547 400 591 503 591 C603 591 671 554 676 550 L718 653 C712 657 643 712 501 712 C319 712 182 621 136 471 L41 471 L41 382 L120 382 C119 373 119 363 119 354 C119 339 120 325 121 311 L41 311 L41 222 L141 222 C191 80 324 -9 501 -9 C643 -9 712 44 719 48 L676 152 Z " />
<glyph glyph-name="trademark" unicode="&#x2122;" horiz-adv-x="686" d="M608 702 L549 702 L463 563 L375 702 L317 702 L305 434 L376 434 L379 581 L436 492 L489 492 L545 581 L549 434 L619 434 L608 702 Z M39 630 L112 630 L112 434 L187 434 L187 630 L263 630 L263 701 L39 701 L39 630 Z " />
<glyph glyph-name="minus" unicode="&#x2212;" horiz-adv-x="549" d="M46 241 L503 241 L503 345 L46 345 L46 241 Z " />
<glyph glyph-name="approxequal" unicode="&#x2248;" horiz-adv-x="601" d="M391 311 C488 311 538 401 539 402 L464 464 C463 463 437 421 393 421 C326 421 288 462 210 462 C112 462 65 382 63 381 L139 317 C140 318 163 351 209 351 C275 351 305 311 391 311 L391 311 Z M391 89 C488 89 538 179 539 179 L464 242 C463 240 437 198 393 198 C326 198 288 241 210 241 C112 241 65 161 63 159 L139 95 C140 96 163 130 209 130 C275 130 305 89 391 89 L391 89 Z " />
<glyph glyph-name="notequal" unicode="&#x2260;" horiz-adv-x="626" d="M557 344 L557 448 L412 448 L442 552 L329 552 L299 448 L59 448 L59 344 L269 344 L236 233 L59 233 L59 128 L206 128 L175 22 L288 22 L319 128 L557 128 L557 233 L349 233 L382 344 L557 344 Z " />
<glyph glyph-name="uniF8FF" unicode="&#xf8ff;" horiz-adv-x="1451" d="M752 522 C787 522 814 549 814 583 C814 618 787 645 752 645 C718 645 691 618 691 583 C691 549 718 522 752 522 L752 522 Z M100 270 L219 270 C219 425 211 544 209 584 L109 584 C107 544 100 423 100 270 L100 270 Z M604 264 C633 264 662 268 672 279 L672 353 C668 349 660 348 654 348 C647 348 641 350 639 352 L636 417 L697 417 C695 380 694 332 694 270 L812 270 C812 351 809 464 802 509 L624 509 L623 526 L504 496 L504 417 L526 417 C526 411 522 351 522 330 C522 287 550 264 604 264 L604 264 Z M328 265 C376 265 395 290 403 331 L411 270 L494 270 L494 397 C494 471 455 514 370 514 C278 514 236 464 236 379 C236 301 271 265 328 265 L328 265 Z M834 270 L948 270 C948 316 945 343 945 363 C945 380 947 392 963 392 C976 392 978 383 978 363 C978 343 976 316 976 270 L1090 270 L1087 408 C1085 479 1069 514 1010 514 C944 514 932 450 930 433 C930 453 927 487 924 509 L844 509 C837 464 834 351 834 270 L834 270 Z M1228 265 C1313 265 1351 312 1351 391 C1351 454 1327 514 1230 514 C1132 514 1106 453 1106 389 C1106 313 1143 265 1228 265 L1228 265 Z M366 345 C351 345 344 356 344 375 C344 394 351 401 366 401 C381 401 390 394 390 375 C390 356 381 345 366 345 L366 345 Z M1228 345 C1214 345 1207 356 1207 375 C1207 394 1214 401 1228 401 C1242 401 1251 394 1251 375 C1251 356 1242 345 1228 345 L1228 345 Z M390 -50 C505 -50 542 -6 542 100 C542 153 536 217 532 238 L428 238 L428 119 C428 99 424 92 412 92 C400 92 397 98 397 119 L397 238 L220 238 L221 256 L104 227 L104 147 L122 147 C121 133 119 81 119 66 C119 18 139 -5 200 -5 C250 -5 263 6 268 10 L268 83 C266 81 261 78 250 78 C242 78 238 80 235 82 L232 147 L287 147 L287 134 C287 77 318 51 377 51 C407 51 420 58 426 62 C426 56 418 34 372 34 C329 34 308 46 302 50 L302 -33 C310 -38 331 -50 390 -50 L390 -50 Z M558 -44 L677 -44 C677 -37 677 -20 676 -5 C768 -5 813 40 813 130 C813 204 782 243 733 243 C670 243 656 176 653 162 C653 180 648 226 646 238 L568 238 C566 210 558 126 558 -44 L558 -44 Z M970 -5 C1013 -5 1038 4 1048 11 L1048 86 C1034 78 1012 74 993 74 C962 74 948 84 943 92 L1067 92 C1069 101 1070 116 1070 127 C1070 202 1027 243 954 243 C874 243 829 195 829 117 C829 38 875 -5 970 -5 L970 -5 Z M938 109 C938 127 947 136 961 136 C974 136 980 127 978 109 L938 109 Z M670 72 C669 75 665 85 665 101 C665 123 673 132 687 132 C699 132 707 125 707 109 C707 78 677 72 670 72 L670 72 Z M1098 -10 C1112 -10 1122 -1 1122 13 C1122 27 1112 36 1098 36 C1084 36 1074 27 1074 13 C1074 -1 1084 -10 1098 -10 L1098 -10 Z M1098 -5 C1087 -5 1080 1 1080 13 C1080 25 1087 31 1098 31 C1109 31 1116 25 1116 13 C1116 1 1109 -5 1098 -5 L1098 -5 Z M1088 2 L1093 2 L1093 11 L1098 11 L1102 2 L1108 2 L1102 11 C1105 11 1109 13 1109 18 C1109 22 1106 25 1099 25 L1088 25 L1088 2 Z M1093 15 L1093 21 L1100 21 C1103 21 1104 20 1104 18 C1104 16 1103 15 1100 15 L1093 15 Z " />
<glyph glyph-name="fi" unicode="&#xfb01;" horiz-adv-x="667" d="M109 0 L240 0 L240 350 L378 350 L378 460 L240 460 L240 507 C240 576 284 603 329 603 C360 603 376 593 385 588 L435 686 C413 701 375 722 314 722 C184 722 109 642 109 514 L109 460 L22 460 L22 350 L109 350 L109 0 Z M537 539 C586 539 624 573 624 622 C624 671 586 705 537 705 C489 704 452 671 452 622 C452 573 489 539 537 539 L537 539 Z M474 0 L605 0 L605 460 L474 460 L474 0 Z " />
<glyph glyph-name="fl" unicode="&#xfb02;" horiz-adv-x="655" d="M109 0 L240 0 L240 350 L378 350 L378 460 L240 460 L240 507 C240 576 284 603 329 603 C360 603 376 593 385 588 L435 686 C413 701 375 722 314 722 C184 722 109 642 109 514 L109 460 L22 460 L22 350 L109 350 L109 0 Z M461 0 L592 0 L592 714 L461 714 L461 0 Z " />
</font>
</svg>
